<?xml version="1.0" encoding="UTF-8"?>
<svg version="1.1" xmlns="http://www.w3.org/2000/svg" width="500" height="500">
<path d="M0 0 C1.20978516 -0.01611328 2.41957031 -0.03222656 3.66601562 -0.04882812 C4.81908203 -0.04947266 5.97214844 -0.05011719 7.16015625 -0.05078125 C8.74969116 -0.05525269 8.74969116 -0.05525269 10.37133789 -0.05981445 C11.64158813 0.1244812 11.64158813 0.1244812 12.9375 0.3125 C14.9375 3.3125 14.9375 3.3125 14.8125 6.875 C13.9375 10.3125 13.9375 10.3125 12.15332031 11.51513672 C9.80199748 12.3612606 8.09881314 12.5433759 5.609375 12.5078125 C4.41054688 12.49814453 4.41054688 12.49814453 3.1875 12.48828125 C2.3625 12.47152344 1.5375 12.45476562 0.6875 12.4375 C-0.15296875 12.42847656 -0.9934375 12.41945312 -1.859375 12.41015625 C-3.92720604 12.38665817 -5.99488995 12.35078908 -8.0625 12.3125 C-8.40861328 13.91351563 -8.40861328 13.91351563 -8.76171875 15.546875 C-11.98811529 30.34223175 -15.55077189 45.0391691 -19.625 59.625 C-19.82939697 60.35807373 -20.03379395 61.09114746 -20.24438477 61.84643555 C-21.24767855 65.43352146 -22.26568371 69.01571626 -23.30078125 72.59375 C-23.68002219 73.93740558 -24.05894403 75.28115128 -24.4375 76.625 C-24.77523437 77.79675781 -25.11296875 78.96851563 -25.4609375 80.17578125 C-26.07492722 83.3772991 -25.89407976 85.20584355 -25.0625 88.3125 C-24.52198893 94.90673505 -25.79999414 98.64478909 -29.0625 104.3125 C-29.73659458 105.64209344 -30.40532298 106.97446391 -31.0625 108.3125 C-30.7325 108.6425 -30.4025 108.9725 -30.0625 109.3125 C-29.4732939 114.45873046 -28.89987709 119.8947271 -31.19140625 124.66015625 C-34.22924796 128.3959877 -37.22386623 130.55349862 -42.0625 131.3125 C-48.09922294 131.37776187 -52.35729433 130.32913899 -57.0625 126.3125 C-59.0625 122.3125 -59.0625 122.3125 -60.0625 110.3125 C-68.9725 109.9825 -77.8825 109.6525 -87.0625 109.3125 C-86.06674757 105.32949027 -84.71612053 102.05112033 -83.0625 98.3125 C-81.23090332 98.282771 -81.23090332 98.282771 -79.36230469 98.25244141 C-74.82970646 98.17633877 -70.2974273 98.08762839 -65.76513672 97.99511719 C-63.8039378 97.95684673 -61.84266916 97.92199046 -59.88134766 97.890625 C-57.06127003 97.8449326 -54.24167162 97.786945 -51.421875 97.7265625 C-50.10760529 97.70923569 -50.10760529 97.70923569 -48.76678467 97.69155884 C-47.94623596 97.67168915 -47.12568726 97.65181946 -46.28027344 97.63134766 C-45.20105621 97.61136215 -45.20105621 97.61136215 -44.10003662 97.5909729 C-41.72394515 97.26622925 -40.10335581 96.56005977 -38.0625 95.3125 C-36.97681497 93.46982132 -36.97681497 93.46982132 -37.0625 91.3125 C-37.87169335 89.03996101 -37.87169335 89.03996101 -40.0625 87.3125 C-43.20916347 86.66940106 -46.33984812 86.70748219 -49.54296875 86.703125 C-50.47095779 86.68658875 -51.39894684 86.67005249 -52.35505676 86.65301514 C-55.32010435 86.60441573 -58.28463866 86.58313778 -61.25 86.5625 C-63.25979162 86.5343503 -65.2695592 86.50442429 -67.27929688 86.47265625 C-72.20698901 86.39865355 -77.1343942 86.34915194 -82.0625 86.3125 C-82.3925 82.6825 -82.7225 79.0525 -83.0625 75.3125 C-67.5525 75.3125 -52.0425 75.3125 -36.0625 75.3125 C-33.47234254 64.31876324 -33.47234254 64.31876324 -30.90234375 53.3203125 C-30.60457031 52.03898437 -30.30679688 50.75765625 -30 49.4375 C-29.85240234 48.79554688 -29.70480469 48.15359375 -29.55273438 47.4921875 C-28.20449517 41.71239411 -26.6280444 36.05282945 -25.0625 30.3125 C-76.5425 30.8075 -76.5425 30.8075 -129.0625 31.3125 C-127.0825 36.2625 -125.1025 41.2125 -123.0625 46.3125 C-123.0625 47.3025 -123.0625 48.2925 -123.0625 49.3125 C-126.6925 50.3025 -130.3225 51.2925 -134.0625 52.3125 C-135.5516871 48.79561167 -137.02903842 45.2745043 -138.5 41.75 C-139.13131836 40.2640332 -139.13131836 40.2640332 -139.77539062 38.74804688 C-145.00780094 26.14840283 -145.00780094 26.14840283 -143.0625 20.3125 C-139.81116996 18.14494664 -138.93672128 18.06408225 -135.18403625 18.07199097 C-133.67592377 18.06786697 -133.67592377 18.06786697 -132.13734436 18.06365967 C-131.0353923 18.07085022 -129.93344025 18.07804077 -128.7980957 18.08544922 C-127.05642624 18.08501114 -127.05642624 18.08501114 -125.27957153 18.08456421 C-121.43239939 18.08596024 -117.58541966 18.10153454 -113.73828125 18.1171875 C-111.07455619 18.12091666 -108.41084186 18.12386244 -105.74711609 18.12576294 C-99.44668212 18.13198117 -93.14631749 18.1483966 -86.84591407 18.16846192 C-79.67307659 18.19081027 -72.50023581 18.20181167 -65.32737219 18.21185279 C-50.57237932 18.23276254 -35.81744087 18.26794518 -21.0625 18.3125 C-20.87095337 17.40649048 -20.87095337 17.40649048 -20.67553711 16.48217773 C-20.5028833 15.68239502 -20.33022949 14.8826123 -20.15234375 14.05859375 C-19.89892212 12.87414673 -19.89892212 12.87414673 -19.64038086 11.66577148 C-16.75234342 -0.09501976 -11.07138763 -0.02958682 0 0 Z M-45.0625 111.3125 C-46.3825 112.3025 -47.7025 113.2925 -49.0625 114.3125 C-48.7325 115.9625 -48.4025 117.6125 -48.0625 119.3125 C-46.21524948 120.00409401 -46.21524948 120.00409401 -44.0625 120.3125 C-43.0725 119.6525 -42.0825 118.9925 -41.0625 118.3125 C-40.81219023 115.72869823 -40.81219023 115.72869823 -41.0625 113.3125 C-42.3825 112.6525 -43.7025 111.9925 -45.0625 111.3125 Z " fill="#E86454" transform="translate(417.0625,150.6875)"/>
<path d="M0 0 C0.99 1.485 0.99 1.485 2 3 C1.25 5.8125 1.25 5.8125 0 9 C-0.28875 9.886875 -0.5775 10.77375 -0.875 11.6875 C-1.85712731 14.57931931 -2.88715242 17.44501116 -3.9375 20.3125 C-7.14587521 29.12959038 -9.82056302 37.8649131 -12 47 C-12.66 47 -13.32 47 -14 47 C-14 48.98 -14 50.96 -14 53 C-14.66 53 -15.32 53 -16 53 C-16.33 54.32 -16.66 55.64 -17 57 C-19.43816585 57.0809723 -21.87364384 57.14046972 -24.3125 57.1875 C-25.00279297 57.21263672 -25.69308594 57.23777344 -26.40429688 57.26367188 C-31.45222553 57.33683026 -31.45222553 57.33683026 -33.88671875 55.83984375 C-35.35821235 53.40800695 -35.89720868 51.15214574 -36.5 48.375 C-38.1212629 41.3551863 -40.21234386 34.64748773 -43 28 C-46.16836047 34.33672093 -48.03672061 40.54268889 -49.60449219 47.4140625 C-51.30454693 54.756018 -51.30454693 54.756018 -53 57 C-56.67324694 58.26248038 -59.99298178 57.97666463 -63.8125 57.5625 C-64.78832031 57.46066406 -65.76414063 57.35882813 -66.76953125 57.25390625 C-67.50558594 57.17011719 -68.24164063 57.08632813 -69 57 C-71.94405888 50.79527648 -74.17930309 44.59880319 -76.0625 38 C-78.97265688 27.96497627 -82.24882148 18.16971744 -86.01367188 8.42382812 C-88 3.21158365 -88 3.21158365 -88 1 C-82.06 1 -76.12 1 -70 1 C-68.52544881 4.68637796 -67.46332794 7.87552189 -66.5625 11.6875 C-65.22651601 17.1882096 -63.68542272 22.59708462 -62 28 C-61.01 28 -60.02 28 -59 28 C-58.896875 27.34 -58.79375 26.68 -58.6875 26 C-57.98682445 22.94250668 -56.89837983 20.16761436 -55.75390625 17.25390625 C-54.66450936 13.99700468 -54.14308872 10.68603869 -53.625 7.296875 C-52.83877363 4.40749308 -52.26923685 3.00093029 -50 1 C-47.12961948 0.70438924 -44.66245255 0.62056984 -41.8125 0.75 C-41.06291016 0.76804687 -40.31332031 0.78609375 -39.54101562 0.8046875 C-37.6934629 0.85175891 -35.84656841 0.92350234 -34 1 C-32.44928686 5.37301106 -30.99936332 9.70072676 -30.0625 14.25 C-28.80748053 20.28911076 -26.86950889 26.12829003 -25 32 C-23.61923249 27.9924065 -22.6001884 24.20131882 -22 20 C-21.34 20 -20.68 20 -20 20 C-20.04125 19.113125 -20.0825 18.22625 -20.125 17.3125 C-19.99691981 13.91837498 -19.3218387 12.08429029 -18 9 C-17.26595626 6.34653107 -16.63582357 3.67954217 -16 1 C-13.3755252 0.75190045 -10.75232855 0.5258301 -8.125 0.3125 C-7.37863281 0.23966797 -6.63226563 0.16683594 -5.86328125 0.09179688 C-3.6953125 -0.07421875 -3.6953125 -0.07421875 0 0 Z " fill="#49884A" transform="translate(298,297)"/>
<path d="M0 0 C0.33 -1.32 0.66 -2.64 1 -4 C5.62 -4 10.24 -4 15 -4 C15.67152198 0.02913188 16.12781539 3.26197137 16.14526367 7.23925781 C16.15164352 8.23338684 16.15802338 9.22751587 16.16459656 10.25177002 C16.16570938 11.30821716 16.1668222 12.36466431 16.16796875 13.453125 C16.17296135 15.09797882 16.17296135 15.09797882 16.17805481 16.77606201 C16.18310408 19.08572979 16.18546375 21.39540483 16.18530273 23.70507812 C16.18750088 27.25142206 16.20570958 30.79746057 16.22460938 34.34375 C16.2275413 36.5885406 16.22952744 38.83333268 16.23046875 41.078125 C16.23765427 42.14266907 16.24483978 43.20721313 16.25224304 44.30401611 C16.24916641 45.2855365 16.24608978 46.26705688 16.24291992 47.27832031 C16.24434494 48.14402649 16.24576996 49.00973267 16.24723816 49.90167236 C16 52 16 52 14 54 C11.1796875 54.1953125 11.1796875 54.1953125 7.875 54.125 C6.77929688 54.10695313 5.68359375 54.08890625 4.5546875 54.0703125 C3.71164063 54.04710937 2.86859375 54.02390625 2 54 C1.34 52.02 0.68 50.04 0 48 C-0.61875 48.495 -1.2375 48.99 -1.875 49.5 C-4 51 -4 51 -6 51 C-6.495 51.99 -6.495 51.99 -7 53 C-16.33147105 56.56178917 -25.00388265 54.38151929 -34 51 C-34 50.34 -34 49.68 -34 49 C-34.59554687 48.76410156 -35.19109375 48.52820313 -35.8046875 48.28515625 C-40.52855998 45.51975759 -43.02189235 39.65549587 -44.86328125 34.65625 C-47.18833159 25.67238203 -45.22744199 16.79756737 -41.375 8.5 C-37.40082097 1.98879894 -31.63049001 -2.537935 -24.28515625 -4.56640625 C-15.35705285 -6.26045664 -7.95213052 -4.11008993 0 0 Z M-26 15 C-29.41878803 20.12818205 -28.7384295 26.03214707 -28 32 C-26.64613886 35.33135124 -25.11255307 37.19410287 -22 39 C-17.27437943 40.4665719 -12.79193651 40.60126469 -8.125 38.875 C-4.73503125 36.84101875 -3.1504364 35.29886095 -1 32 C-0.1016639 26.35237234 0.3882368 19.35224551 -2.625 14.25 C-7.27366079 9.84600557 -12.47970969 9.49784814 -18.66015625 9.609375 C-22.31530764 10.21958391 -23.84792974 12.10815559 -26 15 Z " fill="#4B894C" transform="translate(161,214)"/>
<path d="M0 0 C1.2065625 0.9590625 1.2065625 0.9590625 2.4375 1.9375 C2.4375 2.5975 2.4375 3.2575 2.4375 3.9375 C3.0975 3.9375 3.7575 3.9375 4.4375 3.9375 C5.25424796 5.68552146 6.06573451 7.43600189 6.875 9.1875 C7.55369141 10.64929688 7.55369141 10.64929688 8.24609375 12.140625 C10.03859575 16.34859692 10.56015648 19.61560776 10.5 24.1875 C10.49097656 25.07953125 10.48195313 25.9715625 10.47265625 26.890625 C10.46105469 27.56609375 10.44945312 28.2415625 10.4375 28.9375 C5.75687189 29.83712825 1.16709146 30.14245624 -3.5859375 30.25390625 C-4.33211334 30.27468735 -5.07828918 30.29546844 -5.84707642 30.31687927 C-8.21046508 30.3818123 -10.57395664 30.44099571 -12.9375 30.5 C-14.54818735 30.54323884 -16.15886463 30.58685477 -17.76953125 30.63085938 C-21.70041771 30.73743526 -25.63140677 30.83885792 -29.5625 30.9375 C-28.62007335 35.81746694 -28.62007335 35.81746694 -25.5625 39.375 C-21.13823424 40.20454983 -17.02510933 40.78385694 -12.5625 39.9375 C-10.52411491 38.52661777 -8.90045846 36.96234049 -7.14453125 35.21875 C-5.5625 33.9375 -5.5625 33.9375 -2.5 33.875 C0.63002746 35.00713759 3.51873039 36.33912616 6.4375 37.9375 C6.4375 42.92092807 4.85069747 45.50124038 1.4375 48.9375 C-6.52457997 54.53673249 -15.19273743 55.82637081 -24.6875 54.3125 C-29.83297003 53.12508384 -34.12729452 50.74432086 -38.5625 47.9375 C-38.5625 47.2775 -38.5625 46.6175 -38.5625 45.9375 C-39.2225 45.9375 -39.8825 45.9375 -40.5625 45.9375 C-45.10240838 40.33536946 -47.5625 34.16982661 -47.5625 26.9375 C-47.59730469 26.16792969 -47.63210938 25.39835937 -47.66796875 24.60546875 C-47.94038235 16.36820034 -45.49200455 10.4571673 -40.5625 3.9375 C-39.9025 3.9375 -39.2425 3.9375 -38.5625 3.9375 C-38.2325 2.9475 -37.9025 1.9575 -37.5625 0.9375 C-35.41796875 -0.4140625 -35.41796875 -0.4140625 -32.75 -1.6875 C-31.87730469 -2.11289063 -31.00460937 -2.53828125 -30.10546875 -2.9765625 C-20.1389564 -7.23261539 -9.07286278 -5.6599401 0 0 Z M-26.5625 9.9375 C-28.62944582 12.89027974 -28.5625 14.17473611 -28.5625 17.9375 C-22.2925 17.9375 -16.0225 17.9375 -9.5625 17.9375 C-8.9025 16.6175 -8.2425 15.2975 -7.5625 13.9375 C-8.2225 13.9375 -8.8825 13.9375 -9.5625 13.9375 C-9.8925 12.6175 -10.2225 11.2975 -10.5625 9.9375 C-16.47086926 8.11954023 -20.88854403 6.95120738 -26.5625 9.9375 Z " fill="#408241" transform="translate(316.5625,214.0625)"/>
<path d="M0 0 C6.74866176 4.10066287 12.75854141 9.15489493 15 17 C15.495 18.485 15.495 18.485 16 20 C16.8574912 30.02280693 15.71326285 38.44486247 9.5 46.5625 C7.17984577 48.82465037 6.17630909 49.76471784 3 50 C3 50.66 3 51.32 3 52 C1.0848421 52.81604999 -0.83218834 53.62770632 -2.75 54.4375 C-3.81734375 54.88996094 -4.8846875 55.34242188 -5.984375 55.80859375 C-15.28381563 59.48259555 -21.20870926 57.04968837 -30 53.3125 C-30.99 52.879375 -31.98 52.44625 -33 52 C-33 51.34 -33 50.68 -33 50 C-33.66 50 -34.32 50 -35 50 C-35 49.34 -35 48.68 -35 48 C-35.5775 47.79375 -36.155 47.5875 -36.75 47.375 C-41.62057264 44.39853894 -43.52065722 39.28977116 -45 34 C-46.00508501 22.74826913 -44.68595029 14.60869284 -37.66796875 5.75390625 C-35.02970413 2.9797123 -32.47315685 1.64517956 -29 0 C-28.01 -0.5775 -27.02 -1.155 -26 -1.75 C-17.51370596 -5.13690659 -7.97004084 -4.03103682 0 0 Z M-25 15 C-27.87085705 18.56355714 -28.85896306 22.01274143 -29.5 26.5 C-28.77657528 31.56397306 -27.34803938 35.92512362 -23.421875 39.39453125 C-19.28424482 42.03180454 -15.79783865 42.69786744 -11 42 C-7.17998522 39.94306897 -4.04599228 37.87661696 -2 34 C-0.76353567 28.29324157 -0.67203847 23.43579016 -3 18 C-5.96227317 13.99221865 -8.97786947 11.97827546 -13.8125 11.03515625 C-18.13735645 10.96564963 -21.55298042 12.46044727 -25 15 Z " fill="#468647" transform="translate(197,299)"/>
<path d="M0 0 C5.52641304 3.29118322 8.96767208 6.58142774 10.6875 12.953125 C12.67425353 27.02948511 11.98890337 41.48790222 11.80078125 55.66796875 C8.21538863 57.61631038 5.71866228 57.91047386 1.61328125 57.85546875 C0.54722656 57.84902344 -0.51882813 57.84257812 -1.6171875 57.8359375 C-4.19921875 57.66796875 -4.19921875 57.66796875 -5.19921875 56.66796875 C-5.33459622 54.30352791 -5.40975446 51.96417835 -5.4453125 49.59765625 C-5.47828253 48.128901 -5.51149358 46.66015114 -5.54492188 45.19140625 C-5.59211309 42.87439119 -5.63647254 40.55739281 -5.67602539 38.24023438 C-5.71607804 36.00496055 -5.76757283 33.77016191 -5.8203125 31.53515625 C-5.82872665 30.85258759 -5.83714081 30.17001892 -5.84580994 29.46676636 C-5.96107469 24.91679029 -6.6018125 20.9363444 -8.19921875 16.66796875 C-11.30685928 14.32416304 -11.30685928 14.32416304 -15.19921875 13.66796875 C-19.06191839 14.47794647 -19.06191839 14.47794647 -22.19921875 16.66796875 C-24.52594585 20.86392042 -24.54010822 25.12626823 -24.61328125 29.8125 C-24.6326474 30.58228683 -24.65201355 31.35207367 -24.67196655 32.14518738 C-24.73147498 34.59017046 -24.7780317 37.03520137 -24.82421875 39.48046875 C-24.86242506 41.14390009 -24.90147832 42.80731222 -24.94140625 44.47070312 C-25.03715258 48.53630116 -25.12128884 52.60199176 -25.19921875 56.66796875 C-27.65701851 56.88923053 -30.11449523 57.0954727 -32.57421875 57.29296875 C-33.62222656 57.38964844 -33.62222656 57.38964844 -34.69140625 57.48828125 C-36.52290986 57.62916614 -38.36234623 57.65558534 -40.19921875 57.66796875 C-42.19921875 55.66796875 -42.19921875 55.66796875 -42.43972778 53.33944702 C-42.43528656 52.36681915 -42.43084534 51.39419128 -42.42626953 50.39208984 C-42.42611847 49.29109955 -42.42596741 48.19010925 -42.42581177 47.05575562 C-42.4154892 45.86302032 -42.40516663 44.67028503 -42.39453125 43.44140625 C-42.39170135 42.22345367 -42.38887146 41.0055011 -42.38595581 39.75064087 C-42.37473131 35.84798492 -42.34962247 31.94555572 -42.32421875 28.04296875 C-42.31419189 25.40234706 -42.30506553 22.76172178 -42.296875 20.12109375 C-42.27478456 13.63664095 -42.24128467 7.15232105 -42.19921875 0.66796875 C-39.57394686 0.61414769 -36.94977162 0.57438562 -34.32421875 0.54296875 C-33.57785156 0.52621094 -32.83148438 0.50945312 -32.0625 0.4921875 C-30.10727414 0.47457285 -28.15179854 0.56476686 -26.19921875 0.66796875 C-25.53921875 1.32796875 -24.87921875 1.98796875 -24.19921875 2.66796875 C-23.33296875 2.00796875 -22.46671875 1.34796875 -21.57421875 0.66796875 C-15.30929668 -2.93211939 -6.53977499 -2.72290998 0 0 Z " fill="#4C8B4D" transform="translate(344.19921875,297.33203125)"/>
<path d="M0 0 C7.7711216 -0.09265029 15.54211403 -0.16373925 23.31364918 -0.20724869 C26.92226979 -0.22813051 30.53051277 -0.25645764 34.13891602 -0.30175781 C37.62079774 -0.34519643 41.1023161 -0.36913263 44.58444786 -0.37950897 C46.56047435 -0.39050504 48.53635448 -0.42173453 50.51216125 -0.45318604 C51.71317978 -0.45348816 52.9141983 -0.45379028 54.15161133 -0.45410156 C55.74045891 -0.46742523 55.74045891 -0.46742523 57.36140442 -0.48101807 C60 0 60 0 61.84281921 1.84429932 C63.3842744 4.715861 63.36429102 6.88208563 63.3125 10.125 C63.30863281 11.17945313 63.30476563 12.23390625 63.30078125 13.3203125 C63 16 63 16 61 18 C53.74 18 46.48 18 39 18 C39 37.14 39 56.28 39 76 C33.39 76 27.78 76 22 76 C22 56.86 22 37.72 22 18 C14.74 18 7.48 18 0 18 C-1.48619895 15.02760209 -1.13177009 12.30380422 -1.125 9 C-1.12757812 7.741875 -1.13015625 6.48375 -1.1328125 5.1875 C-1 2 -1 2 0 0 Z " fill="#4E8B4F" transform="translate(98,278)"/>
<path d="M0 0 C2 2 2 2 2.23046875 5.44140625 C2.22647911 6.81517304 2.21173177 8.18894114 2.1875 9.5625 C2.18685547 10.26052734 2.18621094 10.95855469 2.18554688 11.67773438 C2.14031158 16.85968842 2.14031158 16.85968842 1 18 C-0.63472882 18.08700342 -2.27314055 18.10701063 -3.91015625 18.09765625 C-4.89951172 18.09443359 -5.88886719 18.09121094 -6.90820312 18.08789062 C-7.94912109 18.07951172 -8.99003906 18.07113281 -10.0625 18.0625 C-11.10728516 18.05798828 -12.15207031 18.05347656 -13.22851562 18.04882812 C-15.8190666 18.03699913 -18.40950559 18.02051689 -21 18 C-21 20.31 -21 22.62 -21 25 C-20.34 25.33 -19.68 25.66 -19 26 C-19.495 26.495 -19.495 26.495 -20 27 C-20.10109386 29.86095624 -20.13969428 32.69726057 -20.1328125 35.55859375 C-20.13376923 36.41808121 -20.13472595 37.27756866 -20.13571167 38.1631012 C-20.13639357 39.98479282 -20.13453861 41.80648685 -20.13037109 43.62817383 C-20.12502946 46.4220932 -20.13031239 49.21585133 -20.13671875 52.00976562 C-20.13605784 53.77604202 -20.13477642 55.54231832 -20.1328125 57.30859375 C-20.13483673 58.14821152 -20.13686096 58.98782928 -20.13894653 59.85289001 C-20.2378831 64.06021468 -20.2378831 64.06021468 -19 68 C-18.86584528 70.6723621 -18.95681459 73.32250488 -19 76 C-19.66 76 -20.32 76 -21 76 C-21 76.66 -21 77.32 -21 78 C-23.64590014 78.02684679 -26.29153096 78.04676357 -28.9375 78.0625 C-29.69224609 78.07087891 -30.44699219 78.07925781 -31.22460938 78.08789062 C-33.14994313 78.09652441 -35.07535581 78.05224333 -37 78 C-38 77 -38 77 -38.12025452 74.63987732 C-38.11803391 73.59396927 -38.11581329 72.54806122 -38.11352539 71.47045898 C-38.11344986 70.28931015 -38.11337433 69.10816132 -38.11329651 67.89122009 C-38.10813522 66.6058284 -38.10297394 65.32043671 -38.09765625 63.99609375 C-38.0962413 62.68794205 -38.09482635 61.37979034 -38.09336853 60.03199768 C-38.0895441 56.54837141 -38.07971446 53.06478661 -38.06866455 49.58117676 C-38.05844882 46.02873292 -38.05387056 42.47628241 -38.04882812 38.92382812 C-38.03809212 31.94920168 -38.0210166 24.97460283 -38 18 C-38.6612085 18.00523682 -39.32241699 18.01047363 -40.00366211 18.01586914 C-42.98159851 18.03657656 -45.95951982 18.04964012 -48.9375 18.0625 C-50.49887695 18.07506836 -50.49887695 18.07506836 -52.09179688 18.08789062 C-53.08115234 18.09111328 -54.07050781 18.09433594 -55.08984375 18.09765625 C-56.46450806 18.10551147 -56.46450806 18.10551147 -57.86694336 18.11352539 C-60 18 -60 18 -61 17 C-61.07313567 14.46950598 -61.09247527 11.96695163 -61.0625 9.4375 C-61.05798828 8.72658203 -61.05347656 8.01566406 -61.04882812 7.28320312 C-61.03700864 5.52209987 -61.01907263 3.76103964 -61 2 C-57.81646269 0.9388209 -55.67458372 0.91307754 -52.33520508 0.97827148 C-51.17422806 0.99836777 -50.01325104 1.01846405 -48.8170929 1.03916931 C-47.56389755 1.06620438 -46.31070221 1.09323944 -45.01953125 1.12109375 C-43.73640549 1.14470474 -42.45327972 1.16831573 -41.13127136 1.19264221 C-37.72321537 1.25541367 -34.31531552 1.32449978 -30.90740967 1.39489746 C-27.4285797 1.4656437 -23.9496392 1.53042299 -20.47070312 1.59570312 C-13.64701529 1.72462594 -6.82347382 1.86021951 0 2 C0 1.34 0 0.68 0 0 Z " fill="#468747" transform="translate(120,190)"/>
<path d="M0 0 C4.65528493 3.18259394 8.41663005 6.94090051 11 12 C10.67 13.65 10.34 15.3 10 17 C5.38 17.33 0.76 17.66 -4 18 C-4.66 16.68 -5.32 15.36 -6 14 C-8.62627991 12.8658597 -8.62627991 12.8658597 -11.625 12.25 C-12.62789062 12.00765625 -13.63078125 11.7653125 -14.6640625 11.515625 C-15.43492187 11.34546875 -16.20578125 11.1753125 -17 11 C-17.33 13.31 -17.66 15.62 -18 18 C-16.60582227 18.34019152 -15.20955342 18.67181779 -13.8125 19 C-13.03519531 19.185625 -12.25789063 19.37125 -11.45703125 19.5625 C-9.01218669 20.08769898 -9.01218669 20.08769898 -6.54296875 19.90625 C-0.81090336 20.11757038 4.84962431 23.84501965 8.82421875 27.828125 C11.87428382 32.1279302 12.81721475 36.28854327 12.56640625 41.53125 C11.36692862 46.75931799 7.68971925 50.31028075 4 54 C-3.95925778 57.65695628 -13.37011005 58.23438827 -22 57 C-27.73911569 54.86484835 -32.90226974 51.38735698 -36 46 C-37.35064935 40.7012987 -37.35064935 40.7012987 -36 38 C-33.77191841 37.89146017 -31.54230068 37.81416693 -29.3125 37.75 C-28.07113281 37.70359375 -26.82976562 37.6571875 -25.55078125 37.609375 C-21.4445362 38.06110713 -19.84460381 39.06293296 -17 42 C-17 42.66 -17 43.32 -17 44 C-15.35369672 43.85957123 -13.70795821 43.71250671 -12.0625 43.5625 C-11.14597656 43.48128906 -10.22945312 43.40007812 -9.28515625 43.31640625 C-7.03840268 43.23955024 -7.03840268 43.23955024 -6 42 C-5.95936168 40.33382885 -5.957279 38.66611905 -6 37 C-10.07811698 35.15625363 -13.96662666 34.44747083 -18.375 33.75 C-24.64741283 32.61963049 -28.93986912 31.03971802 -33 26 C-33.639375 25.236875 -34.27875 24.47375 -34.9375 23.6875 C-36.79838005 18.98056811 -37.0351581 14.51269146 -35.0859375 9.78125 C-31.81086037 4.11853599 -27.92508819 1.14709341 -21.8125 -1.25 C-14.52845803 -2.68292629 -6.92935888 -2.93165183 0 0 Z " fill="#4C894D" transform="translate(217,211)"/>
<path d="M0 0 C2.89696854 0.36982577 5.37621929 0.68810965 8 2 C8.07746506 6.57043872 7.92244002 10.51957703 7 15 C7.495 15.99 7.495 15.99 8 17 C8.56608783 23.56661888 7.24455936 27.36346622 4 33 C3.32590542 34.32959344 2.65717702 35.66196391 2 37 C2.33 37.33 2.66 37.66 3 38 C3.5892061 43.14623046 4.16262291 48.5822271 1.87109375 53.34765625 C-1.16674796 57.0834877 -4.16136623 59.24099862 -9 60 C-15.03672294 60.06526187 -19.29479433 59.01663899 -24 55 C-26 51 -26 51 -27 39 C-35.91 38.67 -44.82 38.34 -54 38 C-53.00424757 34.01699027 -51.65362053 30.73862033 -50 27 C-48.77893555 26.98018066 -47.55787109 26.96036133 -46.29980469 26.93994141 C-41.76720646 26.86383877 -37.2349273 26.77512839 -32.70263672 26.68261719 C-30.7414378 26.64434673 -28.78016916 26.60949046 -26.81884766 26.578125 C-23.99877003 26.5324326 -21.17917162 26.474445 -18.359375 26.4140625 C-17.48319519 26.40251129 -16.60701538 26.39096008 -15.70428467 26.37905884 C-14.88373596 26.35918915 -14.06318726 26.33931946 -13.21777344 26.31884766 C-12.49829529 26.30552399 -11.77881714 26.29220032 -11.03753662 26.2784729 C-8.66144515 25.95372925 -7.04085581 25.24755977 -5 24 C-3.91431497 22.15732132 -3.91431497 22.15732132 -4 20 C-4.80919335 17.72746101 -4.80919335 17.72746101 -7 16 C-10.14666347 15.35690106 -13.27734812 15.39498219 -16.48046875 15.390625 C-17.87245232 15.36582062 -17.87245232 15.36582062 -19.29255676 15.34051514 C-22.25760435 15.29191573 -25.22213866 15.27063778 -28.1875 15.25 C-30.19729162 15.2218503 -32.2070592 15.19192429 -34.21679688 15.16015625 C-39.14448901 15.08615355 -44.0718942 15.03665194 -49 15 C-50.125 7.25 -50.125 7.25 -49 5 C-44.57495466 4.9748423 -40.14994978 4.95692934 -35.72485352 4.94506836 C-34.22679924 4.94011162 -32.72874961 4.93334426 -31.23071289 4.92456055 C-21.10323824 4.86676697 -11.09736327 5.18049582 -1 6 C-1.020625 5.195625 -1.04125 4.39125 -1.0625 3.5625 C-1 1 -1 1 0 0 Z M-12 40 C-13.32 40.99 -14.64 41.98 -16 43 C-15.67 44.65 -15.34 46.3 -15 48 C-13.15274948 48.69159401 -13.15274948 48.69159401 -11 49 C-10.01 48.34 -9.02 47.68 -8 47 C-7.74969023 44.41619823 -7.74969023 44.41619823 -8 42 C-9.32 41.34 -10.64 40.68 -12 40 Z " fill="#EA4B3A" transform="translate(384,222)"/>
<path d="M0 0 C2.47923801 -0.02685095 4.9581884 -0.04676547 7.4375 -0.0625 C8.14455078 -0.07087891 8.85160156 -0.07925781 9.58007812 -0.08789062 C11.38693559 -0.09653588 13.19387603 -0.05220011 15 0 C16 1 16 1 16.09765625 3.94140625 C16.08605469 5.13636719 16.07445312 6.33132812 16.0625 7.5625 C16.05347656 8.76003906 16.04445312 9.95757812 16.03515625 11.19140625 C16.02355469 12.11824219 16.01195312 13.04507813 16 14 C19.96 14 23.92 14 28 14 C29.43316898 16.86633795 29.13200361 19.37235501 29.125 22.5625 C29.12886719 24.32787109 29.12886719 24.32787109 29.1328125 26.12890625 C29 29 29 29 28 30 C25.98035801 30.07244053 23.95832876 30.08377188 21.9375 30.0625 C20.83277344 30.05347656 19.72804688 30.04445312 18.58984375 30.03515625 C17.73519531 30.02355469 16.88054687 30.01195312 16 30 C16.1387078 33.93778511 16.28718492 37.87514223 16.4375 41.8125 C16.47681641 42.93205078 16.51613281 44.05160156 16.55664062 45.20507812 C16.59853516 46.27822266 16.64042969 47.35136719 16.68359375 48.45703125 C16.72025146 49.44678955 16.75690918 50.43654785 16.79467773 51.45629883 C16.90790331 54.1218351 16.90790331 54.1218351 18 57 C21.63 57.33 25.26 57.66 29 58 C29 62.62 29 67.24 29 72 C22.03742354 74.78503058 16.1210928 73.62262482 9 72 C3.70701671 69.72793161 1.15558402 66.2648625 -1 61 C-1.34057617 57.47314453 -1.34057617 57.47314453 -1.29296875 53.6328125 C-1.28660149 52.61343094 -1.28660149 52.61343094 -1.28010559 51.57345581 C-1.26344266 49.42355076 -1.22581716 47.27461701 -1.1875 45.125 C-1.172437 43.6588678 -1.15875143 42.19272076 -1.14648438 40.7265625 C-1.1135808 37.15073125 -1.06188663 33.57546059 -1 30 C-3.64 30 -6.28 30 -9 30 C-9 25.05 -9 20.1 -9 15 C-6.36 14.67 -3.72 14.34 -1 14 C-0.67 9.38 -0.34 4.76 0 0 Z " fill="#468547" transform="translate(238,195)"/>
<path d="M0 0 C0.66 0.33 1.32 0.66 2 1 C2 1.66 2 2.32 2 3 C2.78375 3.20625 3.5675 3.4125 4.375 3.625 C7 5 7 5 8.14453125 7.6953125 C11.23237381 19.6236906 7.79283411 30.16402724 3 41 C2.31163487 42.99263591 1.63718601 44.99041337 1 47 C-3.37743924 47.83939471 -7.51808713 48.12860298 -11.97265625 48.1328125 C-13.28427734 48.13410156 -14.59589844 48.13539063 -15.94726562 48.13671875 C-16.62313721 48.13462402 -17.29900879 48.1325293 -17.99536133 48.13037109 C-20.060133 48.12500615 -22.12468805 48.1303392 -24.18945312 48.13671875 C-26.15495117 48.13478516 -26.15495117 48.13478516 -28.16015625 48.1328125 C-29.35261963 48.13168457 -30.54508301 48.13055664 -31.77368164 48.12939453 C-34.64340808 48.01430145 -37.21230835 47.66137484 -40 47 C-39.58341372 40.95949893 -38.55287268 38.01582026 -35 33 C-33.86050403 30.36671099 -32.93650937 27.71587717 -32 25 C-31.34 25 -30.68 25 -30 25 C-29.90847656 24.44957031 -29.81695312 23.89914063 -29.72265625 23.33203125 C-27.16821415 15.08877755 -19.70213533 8.10292733 -13 3 C-12.175 2.360625 -11.35 1.72125 -10.5 1.0625 C-6.83812663 -0.49379618 -3.96771988 -0.26017835 0 0 Z " fill="#488848" transform="translate(388,118)"/>
<path d="M0 0 C39.27 0 78.54 0 119 0 C120 4 120 4 119 7 C119.99 7.495 119.99 7.495 121 8 C119.42037782 9.57962218 117.82139428 9.14106172 115.62779236 9.15821838 C114.68403244 9.1680072 113.74027252 9.17779602 112.76791382 9.18788147 C111.72422638 9.19363693 110.68053894 9.1993924 109.60522461 9.20532227 C108.51267868 9.21522186 107.42013275 9.22512146 106.29447937 9.23532104 C102.66378994 9.2670445 99.03308741 9.29173618 95.40234375 9.31640625 C92.89270171 9.33696642 90.38306322 9.35796263 87.87342834 9.37937927 C81.93068679 9.4290351 75.98792189 9.47427523 70.04513031 9.51740164 C62.61794064 9.57156869 55.19080958 9.63254588 47.76367188 9.69335938 C34.50915442 9.8010592 21.25459743 9.90266698 8 10 C7.67 10.66 7.34 11.32 7 12 C7.99 12.33 8.98 12.66 10 13 C9.67 14.98 9.34 16.96 9 19 C7.68 19 6.36 19 5 19 C5 19.66 5 20.32 5 21 C2 20 2 20 0.8125 17.8125 C-0.07334979 14.74609689 -0.14770318 12.17561845 0 9 C-0.99 8.67 -1.98 8.34 -3 8 C-3 6.02 -3 4.04 -3 2 C-2.01 2 -1.02 2 0 2 C0 1.34 0 0.68 0 0 Z " fill="#ED4331" transform="translate(278,171)"/>
<path d="M0 0 C6.04840703 -0.37031063 10.6019202 -0.11427681 16 3 C17.90797143 4.89831081 19.39942141 6.81739283 21 9 C23.49361571 7.79618552 25.68143083 6.54571278 28 5 C29.32 5 30.64 5 32 5 C32 7.31 32 9.62 32 12 C31.34 12 30.68 12 30 12 C29.67 14.64 29.34 17.28 29 20 C30.093125 19.814375 31.18625 19.62875 32.3125 19.4375 C36 19 36 19 39 20 C39 20.66 39 21.32 39 22 C39.598125 22.28875 40.19625 22.5775 40.8125 22.875 C45.81609195 25.44827586 45.81609195 25.44827586 46.625 27.875 C46.810625 28.926875 46.810625 28.926875 47 30 C47.20625 30.680625 47.4125 31.36125 47.625 32.0625 C48 34 48 34 47 37 C30.83 37 14.66 37 -2 37 C-3 32 -3 32 -1.890625 29.76171875 C-1.34921875 29.07722656 -0.8078125 28.39273438 -0.25 27.6875 C0.28109375 26.99011719 0.8121875 26.29273438 1.359375 25.57421875 C3 24 3 24 6 24 C6 23.34 6 22.68 6 22 C7.65 21.34 9.3 20.68 11 20 C9.9275 19.5875 8.855 19.175 7.75 18.75 C3.89219064 17.08661256 0.91639699 15.21462607 -0.75 11.1875 C-1.65116279 3.30232558 -1.65116279 3.30232558 0 0 Z " fill="#438544" transform="translate(291,129)"/>
<path d="M0 0 C2.18888794 3.38282682 1.9775583 5.74002077 1.375 9.5625 C0.9868919 11.86205347 0.9868919 11.86205347 1 14 C2.73010388 16.48231727 2.73010388 16.48231727 5 18 C6.56820874 21.13641748 6.38163039 24.57179483 6 28 C5.372947 29.35241516 4.70415851 30.68608105 4 32 C3.49555349 33.42882492 3.01694819 34.86699532 2.5625 36.3125 C1.25934878 40.32833336 -0.2781904 44.14642614 -2 48 C-5 47 -5 47 -6.16796875 44.78515625 C-6.50441406 43.88667969 -6.84085937 42.98820312 -7.1875 42.0625 C-7.53167969 41.16660156 -7.87585938 40.27070313 -8.23046875 39.34765625 C-9 37 -9 37 -9 35 C-9.66 35 -10.32 35 -11 35 C-11 34.34 -11 33.68 -11 33 C-11.763125 32.7525 -12.52625 32.505 -13.3125 32.25 C-16.44525205 30.79290602 -17.42641821 30.06848449 -19 27 C-19.61869344 24.00864726 -19.83374187 21.04643578 -20 18 C-20.06445312 17.22785156 -20.12890625 16.45570313 -20.1953125 15.66015625 C-20.490595 9.90214759 -19.23856406 6.75664097 -16 2 C-15.34 2 -14.68 2 -14 2 C-14 1.34 -14 0.68 -14 0 C-8.88585874 -3.40942751 -4.88305922 -4.06921601 0 0 Z " fill="#448644" transform="translate(346,117)"/>
<path d="M0 0 C2.7973122 2.35125431 3.3913485 3.98229923 3.875 7.5625 C4.50520787 11.10796892 4.50520787 11.10796892 7 13.5625 C14.79885065 15.00914791 14.79885065 15.00914791 21.9921875 12.62109375 C23.14393514 11.51797545 24.28630523 10.40496272 25.41796875 9.28125 C27 8 27 8 30.0625 7.9375 C33.19252746 9.06963759 36.08123039 10.40162616 39 12 C39 16.98342807 37.41319747 19.56374038 34 23 C26.03792003 28.59923249 17.36976257 29.88887081 7.875 28.375 C2.72952997 27.18758384 -1.56479452 24.80682086 -6 22 C-6 21.34 -6 20.68 -6 20 C-6.66 20 -7.32 20 -8 20 C-8.66 18.68 -9.32 17.36 -10 16 C-9.01 16 -8.02 16 -7 16 C-7 15.34 -7 14.68 -7 14 C-6.01 14 -5.02 14 -4 14 C-4 13.34 -4 12.68 -4 12 C-2.68 12 -1.36 12 0 12 C0.33 8.7 0.66 5.4 1 2 C0.34 1.67 -0.32 1.34 -1 1 C-0.67 0.67 -0.34 0.34 0 0 Z " fill="#4B884D" transform="translate(284,240)"/>
<path d="M0 0 C2.89696854 0.36982577 5.37621929 0.68810965 8 2 C8 3.65 8 5.3 8 7 C7.34 7 6.68 7 6 7 C5.67 10.96 5.34 14.92 5 19 C4.10921753 18.02208496 4.10921753 18.02208496 3.20043945 17.02441406 C-1.52132797 14.03769536 -5.73289497 14.50133162 -11.20703125 14.609375 C-12.28756271 14.61503479 -13.36809418 14.62069458 -14.48136902 14.62652588 C-17.92553389 14.64887957 -21.36865065 14.69907609 -24.8125 14.75 C-27.15037558 14.77006621 -29.4882675 14.78831677 -31.82617188 14.8046875 C-37.55113761 14.84874105 -43.27549392 14.91564379 -49 15 C-50.125 7.25 -50.125 7.25 -49 5 C-44.57495466 4.9748423 -40.14994978 4.95692934 -35.72485352 4.94506836 C-34.22679924 4.94011162 -32.72874961 4.93334426 -31.23071289 4.92456055 C-21.10323824 4.86676697 -11.09736327 5.18049582 -1 6 C-1.020625 5.195625 -1.04125 4.39125 -1.0625 3.5625 C-1 1 -1 1 0 0 Z " fill="#E74634" transform="translate(384,222)"/>
<path d="M0 0 C2.5625 2.1875 2.5625 2.1875 4 4 C1.69 4 -0.62 4 -3 4 C-3 3.34 -3 2.68 -3 2 C-3.99 2 -4.98 2 -6 2 C-6.33 2.66 -6.66 3.32 -7 4 C-9.0625 4.625 -9.0625 4.625 -11 5 C-11 5.99 -11 6.98 -11 8 C-10.34 8 -9.68 8 -9 8 C-6.27370266 10.38551017 -4.24495514 12.57637336 -3 16 C-3 17.65 -3 19.3 -3 21 C-10.59 21 -18.18 21 -26 21 C-27 17 -27 17 -26 14 C-27.7634375 14.4640625 -27.7634375 14.4640625 -29.5625 14.9375 C-33.40776157 15.94941094 -36.97981395 16.42568771 -41 17 C-41.33 21.95 -41.66 26.9 -42 32 C-42.99 32 -43.98 32 -45 32 C-44.76181838 30.09454707 -44.52194872 28.18928952 -44.2734375 26.28515625 C-44.10029229 24.838157 -43.95597817 23.38716984 -43.8515625 21.93359375 C-43.30746722 15.31376779 -40.61646822 11.42470233 -37 6 C-36.34 6 -35.68 6 -35 6 C-34.67 5.01 -34.34 4.02 -34 3 C-31.85546875 1.6484375 -31.85546875 1.6484375 -29.1875 0.375 C-28.31480469 -0.05039063 -27.44210937 -0.47578125 -26.54296875 -0.9140625 C-18.08518457 -4.52583516 -8.23526663 -4.08346209 0 0 Z M-23 12 C-25.06694582 14.95277974 -25 16.23723611 -25 20 C-18.73 20 -12.46 20 -6 20 C-5.34 18.68 -4.68 17.36 -4 16 C-4.66 16 -5.32 16 -6 16 C-6.33 14.68 -6.66 13.36 -7 12 C-12.90836926 10.18204023 -17.32604403 9.01370738 -23 12 Z " fill="#4B894C" transform="translate(313,212)"/>
<path d="M0 0 C1.03125 0.309375 2.0625 0.61875 3.125 0.9375 C6.38972557 1.87502812 9.63613462 2.50772702 13 3 C13 3.66 13 4.32 13 5 C13.66 5 14.32 5 15 5 C15.81674796 6.74802146 16.62823451 8.49850189 17.4375 10.25 C18.11619141 11.71179688 18.11619141 11.71179688 18.80859375 13.203125 C20.60109575 17.41109692 21.12265648 20.67810776 21.0625 25.25 C21.05347656 26.14203125 21.04445313 27.0340625 21.03515625 27.953125 C21.02355469 28.62859375 21.01195312 29.3040625 21 30 C19.34385343 30.38218767 17.67542976 30.71395102 16 31 C15.67 30.67 15.34 30.34 15 30 C12.30764224 29.76321284 9.63501844 29.57801975 6.9375 29.4375 C5.79958008 29.37272461 5.79958008 29.37272461 4.63867188 29.30664062 C2.75934562 29.20026367 0.87969756 29.09960066 -1 29 C-1.33 27.68 -1.66 26.36 -2 25 C-0.66666667 25 0.66666667 25 2 25 C2.66 24.67 3.32 24.34 4 24 C3.72543804 17.82235592 2.97823872 13.82210753 -1 9 C-3.46278801 7.768606 -5.2795055 7.92840804 -8 8 C-7.67 7.34 -7.34 6.68 -7 6 C-6.01 6.33 -5.02 6.66 -4 7 C-4 6.01 -4 5.02 -4 4 C-3.01 4 -2.02 4 -1 4 C-0.67 2.68 -0.34 1.36 0 0 Z " fill="#468747" transform="translate(306,213)"/>
<path d="M0 0 C0.66 0.66 1.32 1.32 2 2 C0.02 2.33 -1.96 2.66 -4 3 C-3.814375 3.61875 -3.62875 4.2375 -3.4375 4.875 C-3 7 -3 7 -4 9 C-3.01 9 -2.02 9 -1 9 C-1.49869404 14.36891879 -2.02227532 19.69235173 -3 25 C-4.32 24.67 -5.64 24.34 -7 24 C-7 25.98 -7 27.96 -7 30 C-6.34 30 -5.68 30 -5 30 C-2.97667384 31.86768569 -2.06701213 33.28338048 -1.80859375 36.046875 C-1.81211396 38.0322723 -1.90085383 40.01707668 -2 42 C-2.66 40.68 -3.32 39.36 -4 38 C-4.66 38 -5.32 38 -6 38 C-6 37.34 -6 36.68 -6 36 C-6.763125 35.7525 -7.52625 35.505 -8.3125 35.25 C-11.44525205 33.79290602 -12.42641821 33.06848449 -14 30 C-14.61869344 27.00864726 -14.83374187 24.04643578 -15 21 C-15.06445312 20.22785156 -15.12890625 19.45570313 -15.1953125 18.66015625 C-15.490595 12.90214759 -14.23856406 9.75664097 -11 5 C-10.34 5 -9.68 5 -9 5 C-9 4.34 -9 3.68 -9 3 C-5.78372163 0.85581442 -3.80909895 0.32417863 0 0 Z " fill="#518E52" transform="translate(341,114)"/>
<path d="M0 0 C1.50811249 -0.00412399 1.50811249 -0.00412399 3.04669189 -0.0083313 C4.14864395 -0.00114075 5.25059601 0.0060498 6.38594055 0.01345825 C8.12761002 0.01302017 8.12761002 0.01302017 9.90446472 0.01257324 C13.75163687 0.01396928 17.59861659 0.02954358 21.445755 0.04519653 C24.10948006 0.04892569 26.77319439 0.05187148 29.43692017 0.05377197 C35.73735413 0.0599902 42.03771876 0.07640563 48.33812219 0.09647095 C55.51095967 0.1188193 62.68380044 0.1298207 69.85666406 0.13986182 C84.61165694 0.16077158 99.36659539 0.19595421 114.12153625 0.24050903 C114.12153625 0.57050903 114.12153625 0.90050903 114.12153625 1.24050903 C75.18153625 1.24050903 36.24153625 1.24050903 -3.87846375 1.24050903 C-3.87846375 2.23050903 -3.87846375 3.22050903 -3.87846375 4.24050903 C-4.86846375 4.24050903 -5.85846375 4.24050903 -6.87846375 4.24050903 C-6.53618803 7.21116413 -6.53618803 7.21116413 -5.87846375 10.24050903 C-5.21846375 10.57050903 -4.55846375 10.90050903 -3.87846375 11.24050903 C-3.2808075 12.98269653 -3.2808075 12.98269653 -2.81596375 15.11550903 C-2.26846053 17.56796144 -1.67609162 19.84762542 -0.87846375 22.24050903 C-0.21846375 22.57050903 0.44153625 22.90050903 1.12153625 23.24050903 C1.12153625 22.58050903 1.12153625 21.92050903 1.12153625 21.24050903 C2.44153625 21.24050903 3.76153625 21.24050903 5.12153625 21.24050903 C5.45153625 19.26050903 5.78153625 17.28050903 6.12153625 15.24050903 C7.90821516 17.92052738 9.05374996 20.27179647 10.24653625 23.24050903 C10.59973938 24.10675903 10.9529425 24.97300903 11.31684875 25.86550903 C12.12153625 28.24050903 12.12153625 28.24050903 12.12153625 31.24050903 C6.67653625 32.72550903 6.67653625 32.72550903 1.12153625 34.24050903 C-0.36765085 30.72362071 -1.84500217 27.20251333 -3.31596375 23.67800903 C-3.73684265 22.6873645 -4.15772156 21.69671997 -4.59135437 20.67605591 C-9.82376469 8.07641186 -9.82376469 8.07641186 -7.87846375 2.24050903 C-4.62713371 0.07295567 -3.75268503 -0.00790871 0 0 Z " fill="#F5A091" transform="translate(281.8784637451172,168.75949096679688)"/>
<path d="M0 0 C0.66 0.33 1.32 0.66 2 1 C3.81171098 1.15306901 5.6283794 1.24946661 7.4453125 1.31640625 C8.52167969 1.35830078 9.59804688 1.40019531 10.70703125 1.44335938 C12.39892578 1.50233398 12.39892578 1.50233398 14.125 1.5625 C15.26066406 1.60568359 16.39632813 1.64886719 17.56640625 1.69335938 C20.37747768 1.7996604 23.18863945 1.90169405 26 2 C25.835 2.598125 25.67 3.19625 25.5 3.8125 C24.8885876 6.11344336 24.8885876 6.11344336 25 9 C23.35 8.34 21.7 7.68 20 7 C20 8.32 20 9.64 20 11 C25.28 11 30.56 11 36 11 C36 11.66 36 12.32 36 13 C31.21284377 13.07415168 26.42602173 13.12860204 21.63842773 13.16479492 C20.00978777 13.17988243 18.38118844 13.20035506 16.75268555 13.22631836 C14.41184465 13.26270449 12.07154081 13.2797262 9.73046875 13.29296875 C8.63813179 13.31619453 8.63813179 13.31619453 7.52372742 13.33988953 C2.44615804 13.34158031 2.44615804 13.34158031 0.0168457 11.48168945 C-0.31871338 10.99273193 -0.65427246 10.50377441 -1 10 C-1.66 10.66 -2.32 11.32 -3 12 C-3.625 9.625 -3.625 9.625 -4 7 C-3.34 6.34 -2.68 5.68 -2 5 C-1.67 5 -1.34 5 -1 5 C-0.67 3.35 -0.34 1.7 0 0 Z " fill="#3D7E3F" transform="translate(285,231)"/>
<path d="M0 0 C3.97915159 -0.02886984 7.95827653 -0.04675406 11.9375 -0.0625 C13.07380859 -0.07087891 14.21011719 -0.07925781 15.38085938 -0.08789062 C16.46044922 -0.09111328 17.54003906 -0.09433594 18.65234375 -0.09765625 C20.15269165 -0.10551147 20.15269165 -0.10551147 21.68334961 -0.11352539 C24 0 24 0 25 1 C25.23529412 6.52941176 25.23529412 6.52941176 24 9 C23.38479492 9.02505615 22.76958984 9.0501123 22.13574219 9.07592773 C19.34029844 9.19218487 16.54516702 9.31477642 13.75 9.4375 C12.78191406 9.47681641 11.81382812 9.51613281 10.81640625 9.55664062 C9.41455078 9.61948242 9.41455078 9.61948242 7.984375 9.68359375 C7.12553711 9.72025146 6.26669922 9.75690918 5.38183594 9.79467773 C3.00929873 9.92985574 3.00929873 9.92985574 0.81347656 10.58227539 C-1 11 -1 11 -3 10 C-3.33 11.32 -3.66 12.64 -4 14 C-4.66 14 -5.32 14 -6 14 C-5.41196203 10.97580475 -4.77321882 7.98241547 -4 5 C-2.68 5.33 -1.36 5.66 0 6 C-0.185625 5.38125 -0.37125 4.7625 -0.5625 4.125 C-1 2 -1 2 0 0 Z " fill="#EE4636" transform="translate(405,152)"/>
<path d="M0 0 C0.99 0 1.98 0 3 0 C3.6875 2.25 3.6875 2.25 4 5 C2.6875 7.3125 2.6875 7.3125 1 9 C0.34 9 -0.32 9 -1 9 C-0.67 10.32 -0.34 11.64 0 13 C-7.92 13 -15.84 13 -24 13 C-23.34 10.69 -22.68 8.38 -22 6 C-19.375 4.5625 -19.375 4.5625 -17 4 C-17 5.65 -17 7.3 -17 9 C-15.93072266 8.44119141 -15.93072266 8.44119141 -14.83984375 7.87109375 C-9.04575346 5.00914067 -5.32358124 3.17318764 1 5 C1.33 3.68 1.66 2.36 2 1 C1.34 0.67 0.68 0.34 0 0 Z " fill="#3E8240" transform="translate(373,151)"/>
<path d="M0 0 C0 2.31 0 4.62 0 7 C-0.66 7 -1.32 7 -2 7 C-2.33 8.32 -2.66 9.64 -3 11 C-3.66 10.67 -4.32 10.34 -5 10 C-5.680625 10.7425 -5.680625 10.7425 -6.375 11.5 C-8 13 -8 13 -10 13 C-10.33 13.99 -10.66 14.98 -11 16 C-11.66 16 -12.32 16 -13 16 C-13 15.34 -13 14.68 -13 14 C-13.99 14 -14.98 14 -16 14 C-15.67 14.99 -15.34 15.98 -15 17 C-16.98 17 -18.96 17 -21 17 C-21 16.34 -21 15.68 -21 15 C-22.32 14.34 -23.64 13.68 -25 13 C-24.360625 12.87625 -23.72125 12.7525 -23.0625 12.625 C-22.381875 12.41875 -21.70125 12.2125 -21 12 C-20.67 11.34 -20.34 10.68 -20 10 C-17.71484375 9.5859375 -17.71484375 9.5859375 -14.9375 9.375 C-13.55884766 9.26285156 -13.55884766 9.26285156 -12.15234375 9.1484375 C-11.08693359 9.07496094 -11.08693359 9.07496094 -10 9 C-11.31201173 7.43750191 -11.31201173 7.43750191 -13 6 C-13.99 6 -14.98 6 -16 6 C-15.34 4.68 -14.68 3.36 -14 2 C-13.34 2.33 -12.68 2.66 -12 3 C-8.11666667 3.4 -8.11666667 3.4 -6 1.5 C-4 0 -4 0 0 0 Z " fill="#49894B" transform="translate(323,134)"/>
<path d="M0 0 C-0.99 0 -1.98 0 -3 0 C-3.12375 0.556875 -3.2475 1.11375 -3.375 1.6875 C-4.05976855 4.22114364 -4.99133763 6.57921032 -6 9 C-4.68 8.67 -3.36 8.34 -2 8 C-2 11.11227195 -2.45627049 13.94152152 -3 17 C-5 14 -5 14 -6 12 C-6.99 11.67 -7.98 11.34 -9 11 C-9 10.34 -9 9.68 -9 9 C-9.66 9 -10.32 9 -11 9 C-11 9.99 -11 10.98 -11 12 C-11.99 11.67 -12.98 11.34 -14 11 C-14.33 14.3 -14.66 17.6 -15 21 C-14.34 21.33 -13.68 21.66 -13 22 C-13.66 23.32 -14.32 24.64 -15 26 C-17.95355998 22.18498503 -18.58622632 19.03912685 -18.4140625 14.34375 C-17.42004283 8.71722358 -14.27986379 4.99829376 -9.875 1.5625 C-6.06721571 -0.50694798 -4.11791442 -1.27797344 0 0 Z " fill="#418243" transform="translate(199,211)"/>
<path d="M0 0 C0.66 0.33 1.32 0.66 2 1 C2 1.66 2 2.32 2 3 C2.99 3.33 3.98 3.66 5 4 C5 4.66 5 5.32 5 6 C7.31 6 9.62 6 12 6 C12 4.68 12 3.36 12 2 C13.32 2 14.64 2 16 2 C16 3.98 16 5.96 16 8 C15.34 8 14.68 8 14 8 C14.33 9.65 14.66 11.3 15 13 C10.05 12.67 5.1 12.34 0 12 C-0.33 10.35 -0.66 8.7 -1 7 C-1.66 6.67 -2.32 6.34 -3 6 C-2.01 4.02 -1.02 2.04 0 0 Z " fill="#F04533" transform="translate(365,267)"/>
<path d="M0 0 C2.7710688 2.34591852 3.52059284 4.14776201 4.1875 7.6875 C4.34605469 8.49574219 4.50460937 9.30398437 4.66796875 10.13671875 C4.77753906 10.75160156 4.88710938 11.36648437 5 12 C5.66 12 6.32 12 7 12 C6.67 13.32 6.34 14.64 6 16 C5.67 15.34 5.34 14.68 5 14 C2.95163118 14.56362302 2.95163118 14.56362302 1 16 C0.00815769 19.58589143 -0.18429132 21.44712603 1 25 C-3.75 23.125 -3.75 23.125 -6 22 C-6 21.34 -6 20.68 -6 20 C-6.66 20 -7.32 20 -8 20 C-8.66 18.68 -9.32 17.36 -10 16 C-9.01 16 -8.02 16 -7 16 C-7 15.34 -7 14.68 -7 14 C-6.01 14 -5.02 14 -4 14 C-4 13.34 -4 12.68 -4 12 C-2.68 12 -1.36 12 0 12 C0.33 8.7 0.66 5.4 1 2 C0.34 1.67 -0.32 1.34 -1 1 C-0.67 0.67 -0.34 0.34 0 0 Z " fill="#558F56" transform="translate(284,240)"/>
<path d="M0 0 C1.20978516 -0.01611328 2.41957031 -0.03222656 3.66601562 -0.04882812 C4.81908203 -0.04947266 5.97214844 -0.05011719 7.16015625 -0.05078125 C8.74969116 -0.05525269 8.74969116 -0.05525269 10.37133789 -0.05981445 C11.64158813 0.1244812 11.64158813 0.1244812 12.9375 0.3125 C14.9375 3.3125 14.9375 3.3125 14.8125 6.875 C13.9375 10.3125 13.9375 10.3125 12.16699219 11.51513672 C9.7451932 12.38127727 7.95558092 12.54247407 5.390625 12.5078125 C4.12412109 12.49814453 4.12412109 12.49814453 2.83203125 12.48828125 C1.95933594 12.47152344 1.08664062 12.45476562 0.1875 12.4375 C-0.70066406 12.42847656 -1.58882813 12.41945312 -2.50390625 12.41015625 C-4.69038058 12.38664577 -6.87630094 12.35378499 -9.0625 12.3125 C-9.0625 11.6525 -9.0625 10.9925 -9.0625 10.3125 C-2.1325 10.3125 4.7975 10.3125 11.9375 10.3125 C11.9375 7.6725 11.9375 5.0325 11.9375 2.3125 C4.0175 1.9825 -3.9025 1.6525 -12.0625 1.3125 C-12.0625 3.2925 -12.0625 5.2725 -12.0625 7.3125 C-13.3825 6.9825 -14.7025 6.6525 -16.0625 6.3125 C-16.18625 6.993125 -16.31 7.67375 -16.4375 8.375 C-17.15350877 11.7402412 -18.09195125 15.01263425 -19.0625 18.3125 C-19.3925 18.3125 -19.7225 18.3125 -20.0625 18.3125 C-20.5792325 12.2408931 -19.2480142 7.54356178 -16.0625 2.3125 C-11.1791904 -0.94303973 -5.73783488 -0.0153336 0 0 Z " fill="#D9786C" transform="translate(417.0625,150.6875)"/>
<path d="M0 0 C-0.33 0.5775 -0.66 1.155 -1 1.75 C-2.3881423 4.87332018 -2.02589215 7.6331945 -1.7890625 10.98828125 C-1.29176066 21.06456385 -1.29176066 21.06456385 -5 25.3125 C-6.6875 26.92578125 -6.6875 26.92578125 -8 28 C-8.66 27.34 -9.32 26.68 -10 26 C-9.7578125 23.8359375 -9.7578125 23.8359375 -9.125 21.375 C-8.92132813 20.55773437 -8.71765625 19.74046875 -8.5078125 18.8984375 C-8.34023438 18.27195312 -8.17265625 17.64546875 -8 17 C-8.66 17 -9.32 17 -10 17 C-9.6875 15.125 -9.6875 15.125 -9 13 C-8.01 12.34 -7.02 11.68 -6 11 C-6.33 8.03 -6.66 5.06 -7 2 C-2.25 0 -2.25 0 0 0 Z " fill="#E94738" transform="translate(389,252)"/>
<path d="M0 0 C-0.33 0.66 -0.66 1.32 -1 2 C-1.66 2 -2.32 2 -3 2 C-3 3.32 -3 4.64 -3 6 C-3.99 6.33 -4.98 6.66 -6 7 C-6.53625 7.804375 -7.0725 8.60875 -7.625 9.4375 C-10.56366257 12.60816225 -12.7718468 13.08932743 -16.87890625 14.03125 C-19 14 -19 14 -20.77734375 12.53125 C-21.18082031 12.0259375 -21.58429688 11.520625 -22 11 C-21.23883449 9.84772177 -20.46567307 8.7033614 -19.6875 7.5625 C-19.04361328 6.60537109 -19.04361328 6.60537109 -18.38671875 5.62890625 C-17 4 -17 4 -14 3 C-13.54625 3.495 -13.0925 3.99 -12.625 4.5 C-11.12364481 6.22609337 -11.12364481 6.22609337 -9 6 C-8.690625 5.38125 -8.38125 4.7625 -8.0625 4.125 C-5.96467648 -0.07064704 -5.02901953 -1.67633984 0 0 Z " fill="#418442" transform="translate(390,121)"/>
<path d="M0 0 C0.66 0 1.32 0 2 0 C1.70703125 2.01822917 1.4140625 4.03645833 1.12109375 6.0546875 C0.8315703 8.08140667 0.8315703 8.08140667 2 10 C2.2430836 14.94269981 2.25495121 18.49009758 0 23 C-0.33 23 -0.66 23 -1 23 C-1 21.02 -1 19.04 -1 17 C-2.32 17.33 -3.64 17.66 -5 18 C-5 15 -5 12 -5 9 C-5.66 9 -6.32 9 -7 9 C-7.33 11.97 -7.66 14.94 -8 18 C-8.99 18.33 -9.98 18.66 -11 19 C-10.67 19.99 -10.34 20.98 -10 22 C-10.66 22.33 -11.32 22.66 -12 23 C-12 22.01 -12 21.02 -12 20 C-12.99 19.67 -13.98 19.34 -15 19 C-14.360625 18.7525 -13.72125 18.505 -13.0625 18.25 C-10.8938135 17.18074773 -10.8938135 17.18074773 -10.0625 15.1875 C-9.97474348 12.11602165 -11.28221096 10.47361622 -13 8 C-9.67778618 6.89259539 -7.35896892 7.02766689 -4 8 C-3.34 8.66 -2.68 9.32 -2 10 C-1.34 6.7 -0.68 3.4 0 0 Z " fill="#E35F50" transform="translate(390,229)"/>
<path d="M0 0 C2 2 2 2 2.23046875 5.44140625 C2.22647911 6.81517304 2.21173177 8.18894114 2.1875 9.5625 C2.18685547 10.26052734 2.18621094 10.95855469 2.18554688 11.67773438 C2.14031158 16.85968842 2.14031158 16.85968842 1 18 C-0.63472882 18.08700342 -2.27314055 18.10701063 -3.91015625 18.09765625 C-4.89951172 18.09443359 -5.88886719 18.09121094 -6.90820312 18.08789062 C-7.94912109 18.07951172 -8.99003906 18.07113281 -10.0625 18.0625 C-11.10728516 18.05798828 -12.15207031 18.05347656 -13.22851562 18.04882812 C-15.8190666 18.03699913 -18.40950559 18.02051689 -21 18 C-21 17.34 -21 16.68 -21 16 C-13.74 16 -6.48 16 1 16 C0.505 10.06 0.505 10.06 0 4 C-29.205 3.505 -29.205 3.505 -59 3 C-58.67 2.34 -58.34 1.68 -58 1 C-38.86 1.33 -19.72 1.66 0 2 C0 1.34 0 0.68 0 0 Z " fill="#6D9E6B" transform="translate(120,190)"/>
<path d="M0 0 C2.97 0 5.94 0 9 0 C9 0.66 9 1.32 9 2 C7.68 2.33 6.36 2.66 5 3 C6.32 3.33 7.64 3.66 9 4 C7.35 4.66 5.7 5.32 4 6 C4 7.32 4 8.64 4 10 C4.66 10.33 5.32 10.66 6 11 C3 13 3 13 -1 13 C-1.66 12.34 -2.32 11.68 -3 11 C-4.65 11.33 -6.3 11.66 -8 12 C-6.35 8.7 -4.7 5.4 -3 2 C-2.01 2 -1.02 2 0 2 C0 1.34 0 0.68 0 0 Z " fill="#3D7E3E" transform="translate(199,209)"/>
<path d="M0 0 C1.76065836 2.64098754 2.52722899 3.9742655 3 7 C2 10 2 10 0 11 C0 12.32 0 13.64 0 15 C-0.66 15 -1.32 15 -2 15 C-2 15.66 -2 16.32 -2 17 C-1.34 17 -0.68 17 0 17 C-0.33 18.32 -0.66 19.64 -1 21 C-3 21 -5 21 -7 21 C-7.2226746 19.56465159 -7.42761906 18.12654475 -7.625 16.6875 C-7.74101562 15.88699219 -7.85703125 15.08648437 -7.9765625 14.26171875 C-8 12 -8 12 -6 9 C-5.01 9 -4.02 9 -3 9 C-3.33 7.02 -3.66 5.04 -4 3 C-3.01 2.67 -2.02 2.34 -1 2 C-0.67 1.34 -0.34 0.68 0 0 Z " fill="#F14635" transform="translate(395,193)"/>
<path d="M0 0 C0.66 0.33 1.32 0.66 2 1 C1.67 1.33 1.34 1.66 1 2 C0.89890614 4.86095624 0.86030572 7.69726057 0.8671875 10.55859375 C0.86623077 11.41808121 0.86527405 12.27756866 0.86428833 13.1631012 C0.86360643 14.98479282 0.86546139 16.80648685 0.86962891 18.62817383 C0.87497054 21.4220932 0.86968761 24.21585133 0.86328125 27.00976562 C0.86394216 28.77604202 0.86522358 30.54231832 0.8671875 32.30859375 C0.86516327 33.14821152 0.86313904 33.98782928 0.86105347 34.85289001 C0.7621169 39.06021468 0.7621169 39.06021468 2 43 C2.13415472 45.6723621 2.04318541 48.32250488 2 51 C1.01 50.67 0.02 50.34 -1 50 C-2.52445819 42.93576966 -3.19362536 36.08378042 -3.1875 28.875 C-3.18814453 28.12871338 -3.18878906 27.38242676 -3.18945312 26.61352539 C-3.13534218 21.27068436 -3.13534218 21.27068436 -2 19 C-1.86152592 17.63792182 -1.77495667 16.2702885 -1.71875 14.90234375 C-1.66267578 13.70061523 -1.66267578 13.70061523 -1.60546875 12.47460938 C-1.53499415 10.77930361 -1.46468239 9.08399106 -1.39453125 7.38867188 C-1.10065115 1.10065115 -1.10065115 1.10065115 0 0 Z " fill="#538352" transform="translate(99,215)"/>
<path d="M0 0 C2.33294775 -0.04241723 4.66702567 -0.04092937 7 0 C8 1 8 1 8.09765625 3.94140625 C8.08605469 5.13636719 8.07445312 6.33132812 8.0625 7.5625 C8.05347656 8.76003906 8.04445312 9.95757812 8.03515625 11.19140625 C8.02355469 12.11824219 8.01195312 13.04507813 8 14 C11.96 14 15.92 14 20 14 C21.44207941 16.88415883 21.09394887 19.41721528 21.0625 22.625 C21.05347656 23.81351563 21.04445313 25.00203125 21.03515625 26.2265625 C21.02355469 27.14179688 21.01195312 28.05703125 21 29 C20.67 29 20.34 29 20 29 C20 25.04 20 21.08 20 17 C15.38 17 10.76 17 6 17 C6 12.38 6 7.76 6 3 C3.69 2.67 1.38 2.34 -1 2 C-0.67 1.34 -0.34 0.68 0 0 Z " fill="#7AA87B" transform="translate(246,195)"/>
<path d="M0 0 C0.66 0.66 1.32 1.32 2 2 C0.576875 2.12375 0.576875 2.12375 -0.875 2.25 C-4.07310132 2.63382023 -4.07310132 2.63382023 -5.1875 4.875 C-5.455625 5.57625 -5.72375 6.2775 -6 7 C-7.625 8.75 -7.625 8.75 -9 10 C-10.32 9.01 -11.64 8.02 -13 7 C-13.7425 7.804375 -14.485 8.60875 -15.25 9.4375 C-17.75304829 11.76988591 -18.7180955 12.63534394 -22 13 C-22 13.66 -22 14.32 -22 15 C-22.66 14.67 -23.32 14.34 -24 14 C-17.6375815 5.9395727 -10.96689271 -1.53921301 0 0 Z " fill="#598F5A" transform="translate(388,118)"/>
<path d="M0 0 C13.53 0 27.06 0 41 0 C41 0.33 41 0.66 41 1 C27.8 1 14.6 1 1 1 C0.34 3.97 -0.32 6.94 -1 10 C7.58 10 16.16 10 25 10 C24.67 11.32 24.34 12.64 24 14 C23.67 13.34 23.34 12.68 23 12 C14.09 11.67 5.18 11.34 -4 11 C-3 7 -3 7 0 0 Z " fill="#E19285" transform="translate(334,249)"/>
<path d="M0 0 C0.66 0 1.32 0 2 0 C3 5.75 3 5.75 3 8 C4.32 7.67 5.64 7.34 7 7 C6.6875 10.375 6.6875 10.375 6 14 C2.79619983 16.13586678 1.98060033 16.23132175 -1.6875 16.125 C-2.89986328 16.09792969 -2.89986328 16.09792969 -4.13671875 16.0703125 C-4.75160156 16.04710937 -5.36648438 16.02390625 -6 16 C-5.67 15.38125 -5.34 14.7625 -5 14.125 C-3.85806765 12.08981656 -3.85806765 12.08981656 -4 10 C-3.34 9.67 -2.68 9.34 -2 9 C-1.31270746 6.88153715 -1.31270746 6.88153715 -0.875 4.4375 C-0.70742188 3.61121094 -0.53984375 2.78492188 -0.3671875 1.93359375 C-0.24601562 1.29550781 -0.12484375 0.65742188 0 0 Z " fill="#EF4534" transform="translate(383,238)"/>
<path d="M0 0 C7.09677419 -0.47311828 7.09677419 -0.47311828 10.625 1.375 C12.85281331 5.62809813 11.25880324 9.5431561 10 14 C9.67 14 9.34 14 9 14 C9 12.02 9 10.04 9 8 C7.68 8.33 6.36 8.66 5 9 C5 8.34 5 7.68 5 7 C3.68 7 2.36 7 1 7 C0.67 4.69 0.34 2.38 0 0 Z " fill="#448041" transform="translate(336,116)"/>
<path d="M0 0 C2.0625 1.6875 2.0625 1.6875 4 4 C3.67 5.65 3.34 7.3 3 9 C-1.62 9.33 -6.24 9.66 -11 10 C-11 8.68 -11 7.36 -11 6 C-10.34 6 -9.68 6 -9 6 C-9 5.01 -9 4.02 -9 3 C-6.03 3.33 -3.06 3.66 0 4 C0 4.66 0 5.32 0 6 C0.66 6 1.32 6 2 6 C1.34 4.02 0.68 2.04 0 0 Z " fill="#639765" transform="translate(224,219)"/>
<path d="M0 0 C1.22099581 3.66298743 1.01998953 6.93020698 0.87890625 10.73046875 C0.85529526 11.48088943 0.83168427 12.23131012 0.80735779 13.00447083 C0.73084327 15.39901219 0.64676674 17.79322013 0.5625 20.1875 C0.50926706 21.8118327 0.45652674 23.43618162 0.40429688 25.06054688 C0.27524473 29.04057534 0.13941046 33.02032144 0 37 C-0.66 37 -1.32 37 -2 37 C-2.495 19.675 -2.495 19.675 -3 2 C-2.01 2 -1.02 2 0 2 C0 1.34 0 0.68 0 0 Z " fill="#457946" transform="translate(341,316)"/>
<path d="M0 0 C0.99 0.66 1.98 1.32 3 2 C1.25192871 7.46737191 -0.65794081 12.75824848 -3 18 C-3.99 17.67 -4.98 17.34 -6 17 C-7.28571429 9.57142857 -7.28571429 9.57142857 -6 6 C-5.34 6.33 -4.68 6.66 -4 7 C-2.45428722 4.68143083 -1.20381448 2.49361571 0 0 Z " fill="#619461" transform="translate(347,147)"/>
<path d="M0 0 C1.43655854 -0.08131463 2.8744483 -0.13933559 4.3125 -0.1875 C5.51326172 -0.23970703 5.51326172 -0.23970703 6.73828125 -0.29296875 C9.47851584 0.06198392 10.29171079 0.89366282 12 3 C10.576875 3.6496875 10.576875 3.6496875 9.125 4.3125 C5.79958063 5.79302201 5.79958063 5.79302201 4 9 C3.34 9 2.68 9 2 9 C1.67 8.34 1.34 7.68 1 7 C-1.02463255 6.34786708 -1.02463255 6.34786708 -3 6 C-3 5.01 -3 4.02 -3 3 C-2.34 3 -1.68 3 -1 3 C-0.67 2.01 -0.34 1.02 0 0 Z " fill="#3D813F" transform="translate(186,252)"/>
<path d="M0 0 C0.33 1.32 0.66 2.64 1 4 C-6.425 5.485 -6.425 5.485 -14 7 C-12 2 -12 2 -9.8125 0.125 C-6.18743997 -1.32502401 -3.76303616 -0.81163525 0 0 Z " fill="#BDDCAC" transform="translate(381,135)"/>
<path d="M0 0 C2.22808159 -0.10853983 4.45769932 -0.18583307 6.6875 -0.25 C7.92886719 -0.29640625 9.17023438 -0.3428125 10.44921875 -0.390625 C14.5554638 0.06110713 16.15539619 1.06293296 19 4 C19 4.66 19 5.32 19 6 C18.360625 5.67 17.72125 5.34 17.0625 5 C12.98763159 3.66943072 9.24809575 3.83340801 5 4 C4.67 4.66 4.34 5.32 4 6 C3.34 6 2.68 6 2 6 C1.67 6.99 1.34 7.98 1 9 C-1.125 2.25 -1.125 2.25 0 0 Z " fill="#6D9F6E" transform="translate(181,249)"/>
<path d="M0 0 C1.65322266 0.01740234 1.65322266 0.01740234 3.33984375 0.03515625 C4.99693359 0.04869141 4.99693359 0.04869141 6.6875 0.0625 C7.54214844 0.07410156 8.39679688 0.08570313 9.27734375 0.09765625 C9.60734375 1.08765625 9.93734375 2.07765625 10.27734375 3.09765625 C6.31734375 3.09765625 2.35734375 3.09765625 -1.72265625 3.09765625 C-1.581911 7.01456675 -1.43527584 10.93110344 -1.28515625 14.84765625 C-1.24583984 15.95882812 -1.20652344 17.07 -1.16601562 18.21484375 C-1.12412109 19.28476563 -1.08222656 20.3546875 -1.0390625 21.45703125 C-1.00240479 22.44155273 -0.96574707 23.42607422 -0.92797852 24.44042969 C-0.74666883 26.78689176 -0.37933806 28.84484037 0.27734375 31.09765625 C-0.38265625 31.09765625 -1.04265625 31.09765625 -1.72265625 31.09765625 C-4.03103376 26.48090123 -3.17824282 20.11506784 -3.34765625 15.03515625 C-3.39921875 13.71708984 -3.45078125 12.39902344 -3.50390625 11.04101562 C-3.54773438 9.78998047 -3.5915625 8.53894531 -3.63671875 7.25 C-3.67748535 6.09491943 -3.71825195 4.93983887 -3.76025391 3.74975586 C-3.70893799 0.12998476 -3.62077639 0.12987003 0 0 Z " fill="#58865A" transform="translate(255.72265625,221.90234375)"/>
<path d="M0 0 C0.66 0.66 1.32 1.32 2 2 C0.4221875 2.2165625 0.4221875 2.2165625 -1.1875 2.4375 C-4.15803429 2.87577555 -7.06437602 3.3819739 -10 4 C-11.66666667 4.33333333 -13.33333333 4.66666667 -15 5 C-15.33 5.99 -15.66 6.98 -16 8 C-19.875 6.25 -19.875 6.25 -21 4 C-14.55947632 -0.90706566 -7.90605644 -0.88186881 0 0 Z " fill="#629563" transform="translate(341,296)"/>
<path d="M0 0 C0.66 0 1.32 0 2 0 C1.50130596 5.36891879 0.97772468 10.69235173 0 16 C-1.32 15.67 -2.64 15.34 -4 15 C-4.19243024 10.18924394 -3.86687649 6.45976049 -2 2 C-1.34 1.34 -0.68 0.68 0 0 Z " fill="#5F9C56" transform="translate(338,123)"/>
<path d="M0 0 C2.64 0 5.28 0 8 0 C7.01 2.97 6.02 5.94 5 9 C3.35 9.33 1.7 9.66 0 10 C-1.36952673 7.26094655 -1.12621361 5.02912668 -1 2 C-0.67 1.34 -0.34 0.68 0 0 Z " fill="#438342" transform="translate(292,131)"/>
<path d="M0 0 C0 0.66 0 1.32 0 2 C0.66 2.33 1.32 2.66 2 3 C1.34 3 0.68 3 0 3 C0 4.32 0 5.64 0 7 C0.99 7.33 1.98 7.66 3 8 C0 9 0 9 -3.75 7.9375 C-8.15285206 6.70633211 -10.7679551 7.41298316 -15 9 C-15.33 8.34 -15.66 7.68 -16 7 C-14.68 7 -13.36 7 -12 7 C-12 6.34 -12 5.68 -12 5 C-11.195625 4.87625 -10.39125 4.7525 -9.5625 4.625 C-8.716875 4.41875 -7.87125 4.2125 -7 4 C-6.67 3.34 -6.34 2.68 -6 2 C-5.67 2.33 -5.34 2.66 -5 3 C-4.54625 2.505 -4.0925 2.01 -3.625 1.5 C-2 0 -2 0 0 0 Z " fill="#4F8B50" transform="translate(189,304)"/>
<path d="M0 0 C16.83 0 33.66 0 51 0 C50.67 0.99 50.34 1.98 50 3 C33.83 3 17.66 3 1 3 C0.67 2.01 0.34 1.02 0 0 Z " fill="#759A6D" transform="translate(288,163)"/>
<path d="M0 0 C0.66 0.66 1.32 1.32 2 2 C0.02 2.33 -1.96 2.66 -4 3 C-3.67 5.31 -3.34 7.62 -3 10 C-3.99 10.495 -3.99 10.495 -5 11 C-5 10.34 -5 9.68 -5 9 C-5.99 8.67 -6.98 8.34 -8 8 C-9.485 10.475 -9.485 10.475 -11 13 C-11.33 12.01 -11.66 11.02 -12 10 C-12.66 9.67 -13.32 9.34 -14 9 C-12.625 7 -12.625 7 -11 5 C-10.34 5 -9.68 5 -9 5 C-9 4.34 -9 3.68 -9 3 C-5.78372163 0.85581442 -3.80909895 0.32417863 0 0 Z " fill="#5F935F" transform="translate(341,114)"/>
<path d="M0 0 C1.6260287 0.06000106 3.25101549 0.1487885 4.875 0.25 C6.23238281 0.31960937 6.23238281 0.31960937 7.6171875 0.390625 C10 1 10 1 11.3203125 3.046875 C11.54460937 3.69140625 11.76890625 4.3359375 12 5 C10.68 6.32 9.36 7.64 8 9 C7.34 8.34 6.68 7.68 6 7 C5.34 6.67 4.68 6.34 4 6 C4 5.34 4 4.68 4 4 C2.35 3.67 0.7 3.34 -1 3 C-0.67 2.01 -0.34 1.02 0 0 Z " fill="#548C58" transform="translate(312,250)"/>
<path d="M0 0 C0.66 0.99 1.32 1.98 2 3 C1.08977798 6.56503624 -0.25833355 9.76547659 -2 13 C-2.66 12.67 -3.32 12.34 -4 12 C-3.125 7.25 -3.125 7.25 -2 5 C-1.34 5 -0.68 5 0 5 C0 4.01 0 3.02 0 2 C-4.29 2 -8.58 2 -13 2 C-13 2.66 -13 3.32 -13 4 C-13.66 4 -14.32 4 -15 4 C-15.33 4.66 -15.66 5.32 -16 6 C-16 4.35 -16 2.7 -16 1 C-13.3755252 0.75190045 -10.75232855 0.5258301 -8.125 0.3125 C-7.37863281 0.23966797 -6.63226563 0.16683594 -5.86328125 0.09179688 C-3.6953125 -0.07421875 -3.6953125 -0.07421875 0 0 Z " fill="#6E946E" transform="translate(298,297)"/>
<path d="M0 0 C1.99954746 -0.04254356 4.00041636 -0.04080783 6 0 C7 1 7 1 7.1875 4.375 C7 8 7 8 5 11 C4.01 10.67 3.02 10.34 2 10 C2 9.34 2 8.68 2 8 C0.68 7.67 -0.64 7.34 -2 7 C-1.34 6.34 -0.68 5.68 0 5 C1.32 5 2.64 5 4 5 C4 4.01 4 3.02 4 2 C2.68 2 1.36 2 0 2 C0 1.34 0 0.68 0 0 Z " fill="#408341" transform="translate(208,213)"/>
<path d="M0 0 C3.0625 0.125 3.0625 0.125 5.0625 1.125 C4.7325 2.115 4.4025 3.105 4.0625 4.125 C4.0625 3.465 4.0625 2.805 4.0625 2.125 C3.4025 2.125 2.7425 2.125 2.0625 2.125 C1.7325 5.095 1.4025 8.065 1.0625 11.125 C0.0725 11.455 -0.9175 11.785 -1.9375 12.125 C-1.6075 13.115 -1.2775 14.105 -0.9375 15.125 C-1.9275 15.62 -1.9275 15.62 -2.9375 16.125 C-2.9375 15.135 -2.9375 14.145 -2.9375 13.125 C-3.9275 12.795 -4.9175 12.465 -5.9375 12.125 C-5.298125 11.8775 -4.65875 11.63 -4 11.375 C-1.8313135 10.30574773 -1.8313135 10.30574773 -1 8.3125 C-0.91224348 5.24102165 -2.21971096 3.59861622 -3.9375 1.125 C-2.9375 0.125 -2.9375 0.125 0 0 Z " fill="#E85C4E" transform="translate(380.9375,235.875)"/>
<path d="M0 0 C0.66 0.33 1.32 0.66 2 1 C2 10.9 2 20.8 2 31 C-2.62 31 -7.24 31 -12 31 C-12 30.67 -12 30.34 -12 30 C-7.71 30 -3.42 30 1 30 C1 21.75 1 13.5 1 5 C0.34 5 -0.32 5 -1 5 C-0.67 3.35 -0.34 1.7 0 0 Z " fill="#3C763D" transform="translate(316,322)"/>
<path d="M0 0 C0 0.99 0 1.98 0 3 C-0.99 3 -1.98 3 -3 3 C-2.65772428 5.97065509 -2.65772428 5.97065509 -2 9 C-1.34 9.33 -0.68 9.66 0 10 C1.47180796 14.82425944 2.25376143 18.92477148 2 24 C-0.13704876 20.79442686 -1.34616795 17.79641346 -2.6875 14.1875 C-3.14511719 12.98480469 -3.60273438 11.78210938 -4.07421875 10.54296875 C-5.04333698 6.83414921 -5.07638395 4.65533434 -4 1 C-2 0 -2 0 0 0 Z " fill="#DD6C61" transform="translate(278,170)"/>
<path d="M0 0 C6.19887485 -0.37952295 10.4477112 0.1647887 16 3 C15.67 3.99 15.34 4.98 15 6 C12.03 5.505 12.03 5.505 9 5 C9 4.01 9 3.02 9 2 C7.576875 2.2784375 7.576875 2.2784375 6.125 2.5625 C3 3 3 3 1 2 C0.67 4.31 0.34 6.62 0 9 C-0.33 9 -0.66 9 -1 9 C-1.125 2.25 -1.125 2.25 0 0 Z " fill="#669064" transform="translate(291,129)"/>
<path d="M0 0 C7.92 0 15.84 0 24 0 C23.67 1.32 23.34 2.64 23 4 C23 4.99 23 5.98 23 7 C21.02 6.34 19.04 5.68 17 5 C17.33 4.01 17.66 3.02 18 2 C12.06 1.67 6.12 1.34 0 1 C0 0.67 0 0.34 0 0 Z " fill="#397A3C" transform="translate(287,233)"/>
<path d="M0 0 C2.72919934 1.91043954 3.7045272 3.1135816 4.75 6.25 C4.87375 7.11625 4.87375 7.11625 5 8 C4.34 8 3.68 8 3 8 C2.67 6.68 2.34 5.36 2 4 C0.9171875 4.0309375 0.9171875 4.0309375 -0.1875 4.0625 C-3 4 -3 4 -5.5625 3.4375 C-8.13143581 2.97640896 -9.54324322 3.23755824 -12 4 C-12.66 4 -13.32 4 -14 4 C-14.33 4.66 -14.66 5.32 -15 6 C-15 4.68 -15 3.36 -15 2 C-10.02920034 -0.03930243 -5.31645681 -0.82880125 0 0 Z " fill="#67986B" transform="translate(304,220)"/>
<path d="M0 0 C1.9375 0.75 1.9375 0.75 4 2 C4.6875 4 4.6875 4 5 6 C5.33 6.66 5.66 7.32 6 8 C5.67 8.99 5.34 9.98 5 11 C2.36 11 -0.28 11 -3 11 C-2.67 10.01 -2.34 9.02 -2 8 C-1.01 8.33 -0.02 8.66 1 9 C1 8.01 1 7.02 1 6 C0.34 5.34 -0.32 4.68 -1 4 C-0.625 1.875 -0.625 1.875 0 0 Z " fill="#568D57" transform="translate(333,153)"/>
<path d="M0 0 C0.33 0 0.66 0 1 0 C1.04898438 0.68707031 1.09796875 1.37414062 1.1484375 2.08203125 C1.22320312 2.98308594 1.29796875 3.88414062 1.375 4.8125 C1.44460937 5.70582031 1.51421875 6.59914062 1.5859375 7.51953125 C1.86645036 10.24398499 1.86645036 10.24398499 4 13 C3.67 13.66 3.34 14.32 3 15 C2.34 15 1.68 15 1 15 C1 16.65 1 18.3 1 20 C5.29 20 9.58 20 14 20 C14 20.33 14 20.66 14 21 C9.38 21 4.76 21 0 21 C-0.8356838 13.7574071 -1.01781234 7.2186383 0 0 Z " fill="#337139" transform="translate(83,245)"/>
<path d="M0 0 C0.33 0 0.66 0 1 0 C1.04898438 0.96421875 1.09796875 1.9284375 1.1484375 2.921875 C1.22320312 4.18515625 1.29796875 5.4484375 1.375 6.75 C1.47941406 8.62945312 1.47941406 8.62945312 1.5859375 10.546875 C1.95782139 13.6482463 2.41736716 15.38068131 4 18 C5.10519904 20.85509752 5.07537828 21.77889039 4.0625 24.75 C3.711875 25.4925 3.36125 26.235 3 27 C2.01 26.67 1.02 26.34 0 26 C0 17.42 0 8.84 0 0 Z " fill="#76A979" transform="translate(82,229)"/>
<path d="M0 0 C4.22841226 6.34261838 4.22841226 6.34261838 3.6796875 10.32421875 C3.17895868 12.57044594 2.62706796 14.78596773 2 17 C1.01 16.67 0.02 16.34 -1 16 C-1 16.66 -1 17.32 -1 18 C-1.66 17.67 -2.32 17.34 -3 17 C-2.690625 16.29875 -2.38125 15.5975 -2.0625 14.875 C-0.37150735 10.29937284 0.34494661 6.70731315 -1 2 C-0.67 1.34 -0.34 0.68 0 0 Z " fill="#759E71" transform="translate(195,319)"/>
<path d="M0 0 C-0.33 0.5775 -0.66 1.155 -1 1.75 C-2.27075898 4.19883862 -2.27075898 4.19883862 -2 8 C-2 12.33333333 -2 16.66666667 -2 21 C-2.33 21 -2.66 21 -3 21 C-3.03738281 20.35933594 -3.07476562 19.71867187 -3.11328125 19.05859375 C-3.54562976 13.37024374 -4.54093942 9.13195252 -7 4 C-7 3.34 -7 2.68 -7 2 C-2.25 0 -2.25 0 0 0 Z " fill="#E37B6F" transform="translate(389,252)"/>
<path d="M0 0 C0.66 0.99 1.32 1.98 2 3 C1.34 3 0.68 3 0 3 C0 6.63 0 10.26 0 14 C0.66 14.33 1.32 14.66 2 15 C1.34 16.32 0.68 17.64 0 19 C-3.03317819 15.08214484 -3.44868522 11.95208034 -3.3046875 7.16015625 C-2.89612957 4.26358526 -1.77682232 2.29506216 0 0 Z " fill="#749A74" transform="translate(184,218)"/>
<path d="M0 0 C2.97 0 5.94 0 9 0 C9.33 0.66 9.66 1.32 10 2 C9.34 2 8.68 2 8 2 C8 2.66 8 3.32 8 4 C2.06 4.495 2.06 4.495 -4 5 C-4 4.34 -4 3.68 -4 3 C-2.68 2.67 -1.36 2.34 0 2 C0 1.34 0 0.68 0 0 Z " fill="#4D984C" transform="translate(363,152)"/>
<path d="M0 0 C5.28 0 10.56 0 16 0 C16.66 1.65 17.32 3.3 18 5 C17.01 5.33 16.02 5.66 15 6 C15 4.35 15 2.7 15 1 C10.71 1 6.42 1 2 1 C2 2.98 2 4.96 2 7 C1.34 7 0.68 7 0 7 C0 4.69 0 2.38 0 0 Z " fill="#6D9D6E" transform="translate(302,298)"/>
<path d="M0 0 C3.16115776 1.36983503 3.9927092 1.9890638 6 5 C4.02 5.99 4.02 5.99 2 7 C1.01 6.01 0.02 5.02 -1 4 C-1 4.66 -1 5.32 -1 6 C-2.65 6.66 -4.3 7.32 -6 8 C-5 6 -4 4 -3 2 C-2.01 2 -1.02 2 0 2 C0 1.34 0 0.68 0 0 Z " fill="#528C52" transform="translate(366,131)"/>
<path d="M0 0 C1.15957207 3.47871621 0.77456651 4.34219645 -0.4375 7.6875 C-0.86869141 8.89986328 -0.86869141 8.89986328 -1.30859375 10.13671875 C-1.65083984 11.05904297 -1.65083984 11.05904297 -2 12 C-5.79267192 12.9360342 -8.93674565 12.98276252 -12.8125 12.5625 C-14.27623047 12.40974609 -14.27623047 12.40974609 -15.76953125 12.25390625 C-16.50558594 12.17011719 -17.24164063 12.08632813 -18 12 C-18 11.67 -18 11.34 -18 11 C-13.05 11 -8.1 11 -3 11 C-3 9.02 -3 7.04 -3 5 C-1.5 2.125 -1.5 2.125 0 0 Z " fill="#7DA87E" transform="translate(247,342)"/>
<path d="M0 0 C1.65 0 3.3 0 5 0 C5.66 1.32 6.32 2.64 7 4 C0.71428571 6.42857143 0.71428571 6.42857143 -3 5 C-3 4.01 -3 3.02 -3 2 C-2.01 2 -1.02 2 0 2 C0 1.34 0 0.68 0 0 Z " fill="#3C7F41" transform="translate(182,297)"/>
<path d="M0 0 C0.33 1.32 0.66 2.64 1 4 C4.10523354 3.91911825 7.20850333 3.8062811 10.3125 3.6875 C11.19357422 3.66494141 12.07464844 3.64238281 12.98242188 3.61914062 C13.82998047 3.58369141 14.67753906 3.54824219 15.55078125 3.51171875 C16.33106689 3.48553467 17.11135254 3.45935059 17.9152832 3.43237305 C20.44921166 2.9068329 21.36927777 1.9591474 23 0 C23 1.65 23 3.3 23 5 C15.41 5 7.82 5 0 5 C-0.33 3.68 -0.66 2.36 -1 1 C-0.67 0.67 -0.34 0.34 0 0 Z " fill="#81B483" transform="translate(287,228)"/>
<path d="M0 0 C1.74897661 2.62346492 2.6148939 4.49545594 3.5625 7.4375 C3.93568359 8.58025391 3.93568359 8.58025391 4.31640625 9.74609375 C4.94516216 11.8191918 5.49616083 13.89347243 6 16 C4.35 16 2.7 16 1 16 C0.67 15.34 0.34 14.68 0 14 C0.66 14 1.32 14 2 14 C1.77183594 13.15695312 1.54367187 12.31390625 1.30859375 11.4453125 C1.02113281 10.34960938 0.73367188 9.25390625 0.4375 8.125 C0.14746094 7.03445313 -0.14257812 5.94390625 -0.44140625 4.8203125 C-1 2 -1 2 0 0 Z " fill="#779F76" transform="translate(266,309)"/>
<path d="M0 0 C4.83256305 0.41421969 6.82679218 2.46413986 10 6 C8.1875 7.5625 8.1875 7.5625 6 9 C5.01 8.67 4.02 8.34 3 8 C2.814375 6.576875 2.814375 6.576875 2.625 5.125 C2.28312823 1.91332809 2.28312823 1.91332809 0 0 Z " fill="#609663" transform="translate(212,210)"/>
<path d="M0 0 C2 3 2 3 2 5 C2.66 5.33 3.32 5.66 4 6 C3.67 7.32 3.34 8.64 3 10 C2.01 10 1.02 10 0 10 C0 11.65 0 13.3 0 15 C-0.66 14.34 -1.32 13.68 -2 13 C-1.63834656 8.58782801 -0.94621815 4.32556868 0 0 Z " fill="#E46255" transform="translate(389,192)"/>
<path d="M0 0 C-0.99 0 -1.98 0 -3 0 C-3 0.99 -3 1.98 -3 3 C-5.8125 4.5625 -5.8125 4.5625 -9 6 C-9.99 5.67 -10.98 5.34 -12 5 C-12 5.66 -12 6.32 -12 7 C-12.66 6.67 -13.32 6.34 -14 6 C-9.90404264 1.55296058 -6.27236639 -2.32309866 0 0 Z " fill="#6A9B66" transform="translate(199,211)"/>
<path d="M0 0 C0.33 0.66 0.66 1.32 1 2 C0.34 2 -0.32 2 -1 2 C-1 2.66 -1 3.32 -1 4 C-2.32 4 -3.64 4 -5 4 C-5.433125 5.423125 -5.433125 5.423125 -5.875 6.875 C-7 10 -7 10 -9 12 C-9.99 11.67 -10.98 11.34 -12 11 C-11.07456291 9.65826597 -10.13422595 8.32679841 -9.1875 7 C-8.66542969 6.2575 -8.14335937 5.515 -7.60546875 4.75 C-6.81076172 3.88375 -6.81076172 3.88375 -6 3 C-5.01 3 -4.02 3 -3 3 C-3 2.34 -3 1.68 -3 1 C-2.01 0.67 -1.02 0.34 0 0 Z " fill="#769C75" transform="translate(300,150)"/>
<path d="M0 0 C0.78375 0.04125 1.5675 0.0825 2.375 0.125 C4.46850689 3.5269487 4.55442163 6.17772412 4.375 10.125 C3.715 8.805 3.055 7.485 2.375 6.125 C1.715 6.125 1.055 6.125 0.375 6.125 C0.375 5.465 0.375 4.805 0.375 4.125 C-2.1 3.135 -2.1 3.135 -4.625 2.125 C-2.625 0.125 -2.625 0.125 0 0 Z " fill="#669964" transform="translate(334.625,145.875)"/>
<path d="M0 0 C3 1 3 1 5 4 C5.25760279 6.69452521 5.08900053 9.28548375 5 12 C2.87961365 9.38485683 0.86908256 6.80362384 -1 4 C-0.625 1.8125 -0.625 1.8125 0 0 Z " fill="#3C7F3C" transform="translate(321,230)"/>
<path d="M0 0 C0.66 0.33 1.32 0.66 2 1 C2.625 3.0625 2.625 3.0625 3 5 C-0.75 6.125 -0.75 6.125 -3 5 C-1.125 1.125 -1.125 1.125 0 0 Z M-5 3 C-3 7 -3 7 -3.875 9.75 C-4.431875 10.86375 -4.431875 10.86375 -5 12 C-5.33 12 -5.66 12 -6 12 C-5.67 9.03 -5.34 6.06 -5 3 Z " fill="#3A7B3B" transform="translate(333,121)"/>
<path d="M0 0 C1.98 0.99 3.96 1.98 6 3 C4.02 3.99 4.02 3.99 2 5 C2 5.66 2 6.32 2 7 C0.68 7.33 -0.64 7.66 -2 8 C-2.6875 6.25 -2.6875 6.25 -3 4 C-1.5625 1.75 -1.5625 1.75 0 0 Z " fill="#578F58" transform="translate(198,344)"/>
<path d="M0 0 C0.66 0.66 1.32 1.32 2 2 C1.6875 4.3125 1.6875 4.3125 1 7 C0.67 8.65 0.34 10.3 0 12 C-4.95 12 -9.9 12 -15 12 C-15 11.67 -15 11.34 -15 11 C-10.38 11 -5.76 11 -1 11 C-1 8.69 -1 6.38 -1 4 C-0.5 1.5625 -0.5 1.5625 0 0 Z " fill="#D65349" transform="translate(383,216)"/>
<path d="M0 0 C4.95 0.33 9.9 0.66 15 1 C15 1.33 15 1.66 15 2 C11.7 2 8.4 2 5 2 C5 2.99 5 3.98 5 5 C4.01 5.33 3.02 5.66 2 6 C0 3 0 3 0 0 Z " fill="#3E7C43" transform="translate(248,298)"/>
<path d="M0 0 C3.35337589 0.99694959 4.72713571 1.58565053 6.6875 4.5625 C7.120625 5.366875 7.55375 6.17125 8 7 C8.66 7.33 9.32 7.66 10 8 C9.67 8.66 9.34 9.32 9 10 C8.01 9.67 7.02 9.34 6 9 C6 8.34 6 7.68 6 7 C5.38125 6.773125 4.7625 6.54625 4.125 6.3125 C1.38589791 4.62070165 0.94975528 3.00755839 0 0 Z " fill="#6F9C6D" transform="translate(121,256)"/>
<path d="M0 0 C0.33 0 0.66 0 1 0 C1.03738281 0.90363281 1.07476562 1.80726563 1.11328125 2.73828125 C1.17902344 3.91777344 1.24476563 5.09726562 1.3125 6.3125 C1.37050781 7.48425781 1.42851562 8.65601563 1.48828125 9.86328125 C2.03750493 13.22989666 2.54176504 13.85810627 5 16 C5 16.99 5 17.98 5 19 C4.01 19.33 3.02 19.66 2 20 C0.19320413 15.37630977 -0.21839082 11.57471347 -0.125 6.625 C-0.10695312 5.37976563 -0.08890625 4.13453125 -0.0703125 2.8515625 C-0.04710937 1.91054688 -0.02390625 0.96953125 0 0 Z " fill="#7EA47A" transform="translate(152,319)"/>
<path d="M0 0 C1.95803507 -0.05389087 3.91648909 -0.09274217 5.875 -0.125 C7.51082031 -0.15980469 7.51082031 -0.15980469 9.1796875 -0.1953125 C12 0 12 0 14 2 C12.41870971 2.22331199 10.83478911 2.42804644 9.25 2.625 C7.92742187 2.79902344 7.92742187 2.79902344 6.578125 2.9765625 C3.77140122 3.00207817 2.36615134 2.44843844 0 1 C0 0.67 0 0.34 0 0 Z " fill="#E27266" transform="translate(365,279)"/>
<path d="M0 0 C0 0.99 0 1.98 0 3 C-2.31193977 5.07277359 -4.02935582 6.00978527 -7 7 C-7 7.99 -7 8.98 -7 10 C-7.99 9.67 -8.98 9.34 -10 9 C-8.50521886 5.19510255 -6.30557786 3.33809165 -3 1 C-2.01 0.67 -1.02 0.34 0 0 Z " fill="#6A946A" transform="translate(168,299)"/>
<path d="M0 0 C1.35862973 3.90480249 0.89469712 7.7101776 0.5625 11.75 C0.51029297 12.44738281 0.45808594 13.14476562 0.40429688 13.86328125 C0.27525928 15.57596203 0.13840386 17.28805066 0 19 C-0.99 19 -1.98 19 -3 19 C-2.76252001 17.10016009 -2.52471242 15.20036049 -2.28515625 13.30078125 C-2.09902245 11.79896199 -1.91905056 10.29636252 -1.74609375 8.79296875 C-1.38683222 5.7192868 -0.98170609 2.94511826 0 0 Z " fill="#8FB690" transform="translate(271,225)"/>
<path d="M0 0 C2.1385485 2.1385485 2.42655063 3.13275314 3 6 C5.64 6.33 8.28 6.66 11 7 C8.03312999 8.64826111 5.34373475 9.44271087 2 10 C1.01 7.03 0.02 4.06 -1 1 C-0.67 0.67 -0.34 0.34 0 0 Z " fill="#DE7E6C" transform="translate(281,193)"/>
<path d="M0 0 C1.09570312 0.00902344 2.19140625 0.01804687 3.3203125 0.02734375 C4.16335937 0.03894531 5.00640625 0.05054688 5.875 0.0625 C5.875 0.3925 5.875 0.7225 5.875 1.0625 C4.225 1.0625 2.575 1.0625 0.875 1.0625 C0.875 1.7225 0.875 2.3825 0.875 3.0625 C-2.095 3.0625 -5.065 3.0625 -8.125 3.0625 C-8.125 2.4025 -8.125 1.7425 -8.125 1.0625 C-5.36047967 -0.31976016 -3.0788637 -0.03275387 0 0 Z " fill="#87AE80" transform="translate(181.125,295.9375)"/>
<path d="M0 0 C1.15957207 3.47871621 0.77456651 4.34219645 -0.4375 7.6875 C-0.72496094 8.49574219 -1.01242187 9.30398437 -1.30859375 10.13671875 C-1.53675781 10.75160156 -1.76492188 11.36648437 -2 12 C-2.33 11.34 -2.66 10.68 -3 10 C-3.66 10 -4.32 10 -5 10 C-4.67 8.35 -4.34 6.7 -4 5 C-3.34 5 -2.68 5 -2 5 C-1.34 3.35 -0.68 1.7 0 0 Z " fill="#E76B61" transform="translate(395,214)"/>
<path d="M0 0 C1.32 0.66 2.64 1.32 4 2 C3.34 2 2.68 2 2 2 C1.9175 2.61875 1.835 3.2375 1.75 3.875 C1 6 1 6 -0.75 7.25 C-3.28737029 8.0957901 -5.34234296 8.14764761 -8 8 C-7.67 7.34 -7.34 6.68 -7 6 C-6.01 6.33 -5.02 6.66 -4 7 C-4 6.01 -4 5.02 -4 4 C-3.01 4 -2.02 4 -1 4 C-0.67 2.68 -0.34 1.36 0 0 Z " fill="#3B813F" transform="translate(306,213)"/>
<path d="M0 0 C0.66 0.33 1.32 0.66 2 1 C1.34 4.63 0.68 8.26 0 12 C-0.99 12 -1.98 12 -3 12 C-2.67 9.36 -2.34 6.72 -2 4 C-1.34 4 -0.68 4 0 4 C0 2.68 0 1.36 0 0 Z " fill="#E25D53" transform="translate(393,180)"/>
<path d="M0 0 C0.66 0.33 1.32 0.66 2 1 C-1.44615385 6.78461538 -1.44615385 6.78461538 -4.25 7.875 C-4.8275 7.91625 -5.405 7.9575 -6 8 C-6 8.66 -6 9.32 -6 10 C-6.66 9.67 -7.32 9.34 -8 9 C-6.85459775 7.68712379 -5.70866567 6.37470979 -4.5625 5.0625 C-3.92441406 4.33160156 -3.28632813 3.60070312 -2.62890625 2.84765625 C-1.77458541 1.87860647 -0.91348825 0.91348825 0 0 Z " fill="#78A278" transform="translate(372,123)"/>
<path d="M0 0 C0.66 0 1.32 0 2 0 C5.4887612 4.29385993 5.26854022 7.71870895 5 13 C4.01 13.495 4.01 13.495 3 14 C3.33 11.36 3.66 8.72 4 6 C3.01 6.33 2.02 6.66 1 7 C0.31292445 4.50935112 0 2.62113708 0 0 Z " fill="#7EA67E" transform="translate(347,132)"/>
<path d="M0 0 C1.79133978 -0.05391993 3.58313899 -0.09275571 5.375 -0.125 C6.37273437 -0.14820313 7.37046875 -0.17140625 8.3984375 -0.1953125 C11 0 11 0 13 2 C8.34462607 2.83796731 4.62921525 3.0161692 0 2 C0 1.34 0 0.68 0 0 Z " fill="#84AB81" transform="translate(330,296)"/>
<path d="M0 0 C0.66 0.66 1.32 1.32 2 2 C1.9375 4 1.9375 4 1 6 C-1.5625 7.25 -1.5625 7.25 -4 8 C-4 6.35 -4 4.7 -4 3 C-2.68 3 -1.36 3 0 3 C0 2.01 0 1.02 0 0 Z " fill="#3E7D3E" transform="translate(229,310)"/>
<path d="M0 0 C0.66 0 1.32 0 2 0 C0.8905928 3.48670834 -0.26337666 6.77484237 -2 10 C-2.66 9.67 -3.32 9.34 -4 9 C-3.125 4.25 -3.125 4.25 -2 2 C-1.34 2 -0.68 2 0 2 C0 1.34 0 0.68 0 0 Z " fill="#729C74" transform="translate(298,300)"/>
<path d="M0 0 C0.99 0 1.98 0 3 0 C3 0.99 3 1.98 3 3 C-3.27 3 -9.54 3 -16 3 C-16 2.67 -16 2.34 -16 2 C-14.92878906 1.93941406 -13.85757813 1.87882812 -12.75390625 1.81640625 C-11.35675609 1.73201463 -9.95962143 1.64736594 -8.5625 1.5625 C-7.50192383 1.50352539 -7.50192383 1.50352539 -6.41992188 1.44335938 C-2.91309581 1.52375562 -2.91309581 1.52375562 0 0 Z " fill="#568756" transform="translate(158,291)"/>
<path d="M0 0 C0 0.66 0 1.32 0 2 C2.31 2 4.62 2 7 2 C4.4345406 4.5654594 2.52313332 4.54046087 -1 5 C-1 4.01 -1 3.02 -1 2 C-2.98 2.33 -4.96 2.66 -7 3 C-6.67 2.34 -6.34 1.68 -6 1 C-3.911361 0.32624548 -2.19636905 0 0 0 Z " fill="#5E9961" transform="translate(295,209)"/>
<path d="M0 0 C0.99 0.33 1.98 0.66 3 1 C2.67 2.32 2.34 3.64 2 5 C-0.76264289 5.59732819 -3.16032769 6 -6 6 C-4.6875 4 -4.6875 4 -3 2 C-2.01 2 -1.02 2 0 2 C0 1.34 0 0.68 0 0 Z " fill="#408040" transform="translate(365,135)"/>
<path d="M0 0 C0.66 0 1.32 0 2 0 C1.67 2.64 1.34 5.28 1 8 C0.01 8 -0.98 8 -2 8 C-2.125 5.125 -2.125 5.125 -2 2 C-1.34 1.34 -0.68 0.68 0 0 Z " fill="#BCDFAC" transform="translate(338,123)"/>
<path d="M0 0 C2.3129482 2.3129482 2.49580975 3.47904875 3.125 6.625 C3.29257813 7.44226563 3.46015625 8.25953125 3.6328125 9.1015625 C3.81457031 10.04128906 3.81457031 10.04128906 4 11 C3.01 11.495 3.01 11.495 2 12 C1.67 10.35 1.34 8.7 1 7 C0.01 7.495 0.01 7.495 -1 8 C-1.625 5.125 -1.625 5.125 -2 2 C-1.34 1.34 -0.68 0.68 0 0 Z " fill="#88AF89" transform="translate(229,305)"/>
<path d="M0 0 C1.134375 0.020625 2.26875 0.04125 3.4375 0.0625 C3.7675 0.7225 4.0975 1.3825 4.4375 2.0625 C4.1075 2.7225 3.7775 3.3825 3.4375 4.0625 C0.06287285 3.51526317 -1.64485 3.0076 -4.5625 1.0625 C-3.5625 0.0625 -3.5625 0.0625 0 0 Z " fill="#4E874F" transform="translate(156.5625,279.9375)"/>
<path d="M0 0 C0.66 0 1.32 0 2 0 C2 0.66 2 1.32 2 2 C2.66 2 3.32 2 4 2 C4.66 3.65 5.32 5.3 6 7 C5.401875 6.690625 4.80375 6.38125 4.1875 6.0625 C1.91043228 4.89790296 1.91043228 4.89790296 -1 4 C-1.33 4.66 -1.66 5.32 -2 6 C-2 3 -2 3 0 0 Z " fill="#5F9261" transform="translate(317,216)"/>
<path d="M0 0 C1.134375 0.020625 2.26875 0.04125 3.4375 0.0625 C3.4375 0.7225 3.4375 1.3825 3.4375 2.0625 C0.7975 2.7225 -1.8425 3.3825 -4.5625 4.0625 C-4.5625 -0.28271095 -4.43767807 0.077854 0 0 Z M-7.5625 3.0625 C-6.0775 4.0525 -6.0775 4.0525 -4.5625 5.0625 C-5.8825 4.7325 -7.2025 4.4025 -8.5625 4.0625 C-8.2325 3.7325 -7.9025 3.4025 -7.5625 3.0625 Z " fill="#417941" transform="translate(290.5625,210.9375)"/>
<path d="M0 0 C2.31 0 4.62 0 7 0 C6.67 0.99 6.34 1.98 6 3 C2.4375 4.6875 2.4375 4.6875 -1 6 C-0.67 4.02 -0.34 2.04 0 0 Z " fill="#3A8340" transform="translate(295,154)"/>
<path d="M0 0 C0 2.31 0 4.62 0 7 C-0.66 7 -1.32 7 -2 7 C-2.268125 6.360625 -2.53625 5.72125 -2.8125 5.0625 C-3.88667752 2.66868314 -3.88667752 2.66868314 -7 2 C-4 0 -4 0 0 0 Z " fill="#70A171" transform="translate(323,134)"/>
<path d="M0 0 C2 2 2 2 2.1953125 3.9453125 C2.13020833 5.96354167 2.06510417 7.98177083 2 10 C1.01 9.67 0.02 9.34 -1 9 C-1.125 2.25 -1.125 2.25 0 0 Z " fill="#B5D9B6" transform="translate(99,256)"/>
<path d="M0 0 C2.64 0.99 5.28 1.98 8 3 C7.67 3.99 7.34 4.98 7 6 C4.03 5.505 4.03 5.505 1 5 C0.67 3.35 0.34 1.7 0 0 Z " fill="#76A37A" transform="translate(299,129)"/>
<path d="M0 0 C1.32 0 2.64 0 4 0 C4 0.66 4 1.32 4 2 C6.97 2.495 6.97 2.495 10 3 C9.01 3.99 8.02 4.98 7 6 C3.535 4.02 3.535 4.02 0 2 C0 1.34 0 0.68 0 0 Z " fill="#59895C" transform="translate(188,262)"/>
<path d="M0 0 C2.64 0 5.28 0 8 0 C8 0.33 8 0.66 8 1 C6.02 1 4.04 1 2 1 C1.67 2.32 1.34 3.64 1 5 C-0.32 5.33 -1.64 5.66 -3 6 C-3.33 5.01 -3.66 4.02 -4 3 C-3.01 2.67 -2.02 2.34 -1 2 C-0.67 1.34 -0.34 0.68 0 0 Z " fill="#538B55" transform="translate(163,212)"/>
<path d="M0 0 C0.66 0 1.32 0 2 0 C2.33 2.31 2.66 4.62 3 7 C1.68 7.33 0.36 7.66 -1 8 C-1.625 5.6875 -1.625 5.6875 -2 3 C-1.34 2.01 -0.68 1.02 0 0 Z " fill="#387F40" transform="translate(293,133)"/>
<path d="M0 0 C0.33 0 0.66 0 1 0 C0.67 2.64 0.34 5.28 0 8 C-0.99 8.33 -1.98 8.66 -3 9 C-3.25873987 5.89512156 -3.23307327 4.37494396 -1.5625 1.6875 C-1.046875 1.130625 -0.53125 0.57375 0 0 Z " fill="#619560" transform="translate(157,308)"/>
<path d="M0 0 C0.66 0.33 1.32 0.66 2 1 C0.63016497 4.16115776 0.0109362 4.9927092 -3 7 C-3.33 5.35 -3.66 3.7 -4 2 C-2.125 0.9375 -2.125 0.9375 0 0 Z " fill="#E56453" transform="translate(383,273)"/>
<path d="M0 0 C0 2.97 0 5.94 0 9 C-0.99 9.495 -0.99 9.495 -2 10 C-3.1875 7.25 -3.1875 7.25 -4 4 C-1.78947368 0 -1.78947368 0 0 0 Z " fill="#F54336" transform="translate(385,261)"/>
<path d="M0 0 C0.66 0.99 1.32 1.98 2 3 C1.67 3.99 1.34 4.98 1 6 C-1.475 5.01 -1.475 5.01 -4 4 C-3.67 3.01 -3.34 2.02 -3 1 C-2.01 0.67 -1.02 0.34 0 0 Z " fill="#3D7F41" transform="translate(319,136)"/>
<path d="M0 0 C0.66 0.66 1.32 1.32 2 2 C-0.97 4.475 -0.97 4.475 -4 7 C-4.33 5.68 -4.66 4.36 -5 3 C-3.35 2.67 -1.7 2.34 0 2 C0 1.34 0 0.68 0 0 Z " fill="#739E74" transform="translate(208,339)"/>
<path d="M0 0 C0.33 0 0.66 0 1 0 C1 1.98 1 3.96 1 6 C0.01 5.67 -0.98 5.34 -2 5 C-2.33 6.65 -2.66 8.3 -3 10 C-3.66 9.34 -4.32 8.68 -5 8 C-4 5 -4 5 -1.9375 3.8125 C-1.298125 3.544375 -0.65875 3.27625 0 3 C0 2.01 0 1.02 0 0 Z " fill="#5E9A5C" transform="translate(262,322)"/>
<path d="M0 0 C4.8 3.44615385 4.8 3.44615385 5.8125 6.25 C5.874375 6.8275 5.93625 7.405 6 8 C5.34 8 4.68 8 4 8 C3.67 6.68 3.34 5.36 3 4 C1.35 4 -0.3 4 -2 4 C-2 3.01 -2 2.02 -2 1 C-1.34 0.67 -0.68 0.34 0 0 Z " fill="#7FA979" transform="translate(303,220)"/>
<path d="M0 0 C0.99 0.66 1.98 1.32 3 2 C2.01 4.31 1.02 6.62 0 9 C-0.66 8.01 -1.32 7.02 -2 6 C-1.125 2.8125 -1.125 2.8125 0 0 Z " fill="#7AA47A" transform="translate(347,147)"/>
<path d="M0 0 C0.66 0.33 1.32 0.66 2 1 C3.32 1 4.64 1 6 1 C6.33 2.32 6.66 3.64 7 5 C6.071875 4.835 5.14375 4.67 4.1875 4.5 C1.04378647 3.92251612 1.04378647 3.92251612 -2 4 C-1.34 2.68 -0.68 1.36 0 0 Z " fill="#699867" transform="translate(309,136)"/>
<path d="M0 0 C0.66 0.33 1.32 0.66 2 1 C1.40138258 3.35171131 0.73075648 5.6859378 0 8 C-0.99 8.495 -0.99 8.495 -2 9 C-1.125 1.125 -1.125 1.125 0 0 Z " fill="#6F9870" transform="translate(170,313)"/>
<path d="M0 0 C0.99 0.33 1.98 0.66 3 1 C2.67 2.65 2.34 4.3 2 6 C0.68 5.67 -0.64 5.34 -2 5 C-1.34 3.35 -0.68 1.7 0 0 Z " fill="#6A9968" transform="translate(247,299)"/>
<path d="M0 0 C0.33 0 0.66 0 1 0 C1 1.65 1 3.3 1 5 C-0.32 5 -1.64 5 -3 5 C-3 5.66 -3 6.32 -3 7 C-3.66 7 -4.32 7 -5 7 C-4.67 5.68 -4.34 4.36 -4 3 C-3.01 3 -2.02 3 -1 3 C-0.67 2.01 -0.34 1.02 0 0 Z " fill="#F54433" transform="translate(286,185)"/>
<path d="M0 0 C2.31 0 4.62 0 7 0 C7 0.66 7 1.32 7 2 C7.99 2 8.98 2 10 2 C10 2.66 10 3.32 10 4 C8.02 4 6.04 4 4 4 C4 3.34 4 2.68 4 2 C2.68 1.34 1.36 0.68 0 0 Z " fill="#6A9E69" transform="translate(298,147)"/>
<path d="M0 0 C0.33 0.66 0.66 1.32 1 2 C-0.25 4.625 -0.25 4.625 -2 7 C-2.99 7 -3.98 7 -5 7 C-5 6.01 -5 5.02 -5 4 C-4.34 4 -3.68 4 -3 4 C-2.67 3.01 -2.34 2.02 -2 1 C-1.34 0.67 -0.68 0.34 0 0 Z " fill="#407C41" transform="translate(318,143)"/>
<path d="M0 0 C0.99 0.33 1.98 0.66 3 1 C2.01 4.3 1.02 7.6 0 11 C-0.33 11 -0.66 11 -1 11 C-2.23076923 4.6 -2.23076923 4.6 -1.0625 1.5625 C-0.711875 1.046875 -0.36125 0.53125 0 0 Z " fill="#66986C" transform="translate(394,141)"/>
<path d="M0 0 C1.77706209 2.66559313 2.87548273 5.0280615 4 8 C3.34 8.66 2.68 9.32 2 10 C2 9.34 2 8.68 2 8 C1.34 7.67 0.68 7.34 0 7 C-1.26229508 2.52459016 -1.26229508 2.52459016 0 0 Z " fill="#89AE89" transform="translate(195,319)"/>
<path d="M0 0 C0.66 0 1.32 0 2 0 C2 0.66 2 1.32 2 2 C3.32 2.33 4.64 2.66 6 3 C5.01 3.495 5.01 3.495 4 4 C4.33 5.98 4.66 7.96 5 10 C2.35534962 6.8745041 1.15585285 3.91211733 0 0 Z " fill="#75A875" transform="translate(269,246)"/>
<path d="M0 0 C0.33 1.32 0.66 2.64 1 4 C0.01 4.33 -0.98 4.66 -2 5 C-1.67 5.99 -1.34 6.98 -1 8 C-1.99 8.495 -1.99 8.495 -3 9 C-3 8.01 -3 7.02 -3 6 C-3.99 5.67 -4.98 5.34 -6 5 C-5.38125 4.731875 -4.7625 4.46375 -4.125 4.1875 C-1.7004767 3.04443152 -1.7004767 3.04443152 0 0 Z " fill="#E57367" transform="translate(381,243)"/>
<path d="M0 0 C1.32 1.32 2.64 2.64 4 4 C1.525 5.485 1.525 5.485 -1 7 C-1.625 5.1875 -1.625 5.1875 -2 3 C-1.34 2.01 -0.68 1.02 0 0 Z " fill="#5F9563" transform="translate(121,220)"/>
<path d="M0 0 C1.9451 2.91765 2.45276317 4.62537285 3 8 C2.01 8.495 2.01 8.495 1 9 C0.67 8.34 0.34 7.68 0 7 C-0.66 6.67 -1.32 6.34 -2 6 C-1.34 4.02 -0.68 2.04 0 0 Z " fill="#E36E5E" transform="translate(288,184)"/>
<path d="M0 0 C1.98 0.495 1.98 0.495 4 1 C4 2.32 4 3.64 4 5 C2.35 5 0.7 5 -1 5 C-0.67 3.35 -0.34 1.7 0 0 Z " fill="#DF5C46" transform="translate(401,153)"/>
<path d="M0 0 C0.33 0.66 0.66 1.32 1 2 C3.02463255 2.65213292 3.02463255 2.65213292 5 3 C5 3.99 5 4.98 5 6 C5.66 6 6.32 6 7 6 C6.67 6.66 6.34 7.32 6 8 C1.3125 4.38671875 1.3125 4.38671875 0 3 C0 2.01 0 1.02 0 0 Z " fill="#78A576" transform="translate(291,139)"/>
<path d="M0 0 C0.66 0.33 1.32 0.66 2 1 C2 4.10551666 1.4606285 5.35261084 0 8 C-0.33 7.01 -0.66 6.02 -1 5 C-1.66 4.67 -2.32 4.34 -3 4 C-2.01 2.68 -1.02 1.36 0 0 Z " fill="#659767" transform="translate(330,119)"/>
<path d="M0 0 C1.42944945 2.35438733 2.08661261 3.48032433 1.625 6.25 C1.41875 6.8275 1.2125 7.405 1 8 C0.34 8 -0.32 8 -1 8 C-1.33 8.66 -1.66 9.32 -2 10 C-2.33 9.34 -2.66 8.68 -3 8 C-2.34 7.01 -1.68 6.02 -1 5 C-0.61500109 3.34450469 -0.27206865 1.6777567 0 0 Z " fill="#79A479" transform="translate(242,314)"/>
<path d="M0 0 C0.33 0 0.66 0 1 0 C1 2.97 1 5.94 1 9 C0.34 9 -0.32 9 -1 9 C-1.33 9.66 -1.66 10.32 -2 11 C-1 3.57142857 -1 3.57142857 0 0 Z " fill="#DB7163" transform="translate(386,205)"/>
<path d="M0 0 C2.31 0 4.62 0 7 0 C7 0.99 7 1.98 7 3 C4.36 2.67 1.72 2.34 -1 2 C-0.67 1.34 -0.34 0.68 0 0 Z " fill="#679168" transform="translate(246,195)"/>
<path d="M0 0 C0.99 0 1.98 0 3 0 C3 1.32 3 2.64 3 4 C3.99 4.33 4.98 4.66 6 5 C5.67 5.99 5.34 6.98 5 8 C3.33333333 6.33333333 1.66666667 4.66666667 0 3 C0 2.01 0 1.02 0 0 Z " fill="#E7453B" transform="translate(282,179)"/>
<path d="M0 0 C0.33 0 0.66 0 1 0 C1 1.65 1 3.3 1 5 C1.99 5 2.98 5 4 5 C3.67 6.32 3.34 7.64 3 9 C2.01 8.67 1.02 8.34 0 8 C0 5.36 0 2.72 0 0 Z " fill="#88BC7D" transform="translate(335,126)"/>
<path d="M0 0 C3.375 -0.1875 3.375 -0.1875 7 0 C7.66 0.99 8.32 1.98 9 3 C5.625 3.1875 5.625 3.1875 2 3 C1.34 2.01 0.68 1.02 0 0 Z " fill="#A6BFA6" transform="translate(177,354)"/>
<path d="M0 0 C3.73487777 0.4979837 5.81237635 0.87491756 9 3 C5.23375329 4.25541557 3.62811066 3.37061958 0 2 C0 1.34 0 0.68 0 0 Z " fill="#619061" transform="translate(183,309)"/>
<path d="M0 0 C3.63 0.66 7.26 1.32 11 2 C11 2.33 11 2.66 11 3 C7.04 3 3.08 3 -1 3 C-0.67 2.01 -0.34 1.02 0 0 Z " fill="#8AAF8A" transform="translate(291,253)"/>
<path d="M0 0 C0.93423645 3.01031744 1.04449911 3.86650268 0 7 C-0.99 6.67 -1.98 6.34 -3 6 C-2.625 3.5625 -2.625 3.5625 -2 1 C-1.34 0.67 -0.68 0.34 0 0 Z " fill="#458146" transform="translate(213,232)"/>
<path d="M0 0 C0.99 0 1.98 0 3 0 C3.38218767 1.65614657 3.71395102 3.32457024 4 5 C3 6 3 6 0.4375 6.0625 C-0.7690625 6.0315625 -0.7690625 6.0315625 -2 6 C-1.01 5.67 -0.02 5.34 1 5 C1.73323796 2.98491642 1.73323796 2.98491642 2 1 C1.34 0.67 0.68 0.34 0 0 Z " fill="#317932" transform="translate(373,151)"/>
<path d="M0 0 C0.99 0 1.98 0 3 0 C3 1.65 3 3.3 3 5 C1.68 5.33 0.36 5.66 -1 6 C-0.67 4.02 -0.34 2.04 0 0 Z " fill="#609262" transform="translate(394,131)"/>
</svg>
